<svg width="386" height="754" viewBox="0 0 386 754" fill="none" xmlns="http://www.w3.org/2000/svg">
<rect y="0.179993" width="386" height="753.619" fill="#EFD7E5"/>
<mask id="mask0_4_1416" style="mask-type:alpha" maskUnits="userSpaceOnUse" x="0" y="0" width="386" height="754">
<rect y="0.179993" width="386" height="753.619" fill="#EFD7E5"/>
</mask>
<g mask="url(#mask0_4_1416)">
<path d="M185.732 821.011C188.955 813.756 189.167 805.495 186.302 798.092C186.203 797.836 186.125 797.648 186.072 797.546C183.642 792.855 180.724 788.431 177.542 784.219C170.162 774.45 161.531 764.978 151.931 757.358C138.972 747.072 123.488 740.116 107.16 737.391C90.1066 734.546 71.6288 736.008 55.9864 727.487C35.853 716.519 30.5693 693.369 37.4552 672.72C42.0495 658.942 49.4491 644.594 45.6608 629.702C42.9406 619.011 33.9016 609.208 23.6961 605.054C17.9071 602.698 -9.00822 594.882 -35.8413 632.184C-59.293 664.786 -110.02 720.382 -45.3041 771.708C16.4862 820.714 149.458 902.658 185.732 821.011Z" fill="#ED6CAA"/>
<path d="M201.283 810.035C203.037 802.292 201.641 794.147 197.393 787.441C197.246 787.209 197.133 787.04 197.062 786.951C193.767 782.82 190.045 779.047 186.106 775.533C176.97 767.382 166.665 759.765 155.769 754.154C141.059 746.579 124.519 742.761 107.973 743.258C90.692 743.778 72.8494 748.798 55.8501 743.475C33.9711 736.625 24.2933 714.941 27.0402 693.347C28.8729 678.94 33.3464 663.429 26.7388 649.555C21.9955 639.595 11.225 631.734 0.407429 629.641C-5.72866 628.453 -33.6496 626.01 -52.7303 667.811C-69.4078 704.346 -108.377 768.732 -34.9292 806.519C35.1994 842.597 181.548 897.171 201.283 810.035Z" fill="#EE7D91"/>
<path d="M284.802 816.447C272.097 816.447 259.612 814.137 248.432 809.694C234.863 804.301 223.669 795.848 216.06 785.249C209.964 776.758 205.761 766.576 201.695 756.729C194.796 740.011 188.279 724.22 173.29 715.904C161.064 709.12 146.12 709.806 135.945 710.911C127.714 711.807 119.387 713.314 111.334 714.772C96.4269 717.471 81.015 720.263 65.6811 719.247C42.3461 717.703 16.6423 703.779 12.6656 680.154C10.06 664.675 17.0393 650.779 24.4284 636.068C29.8266 625.32 35.4089 614.205 36.8228 602.483C39.7173 578.484 22.2534 553.666 -1.31274 548.287C-20.2642 543.959 -39.5733 550.987 -55.962 558.431C-58.6984 559.674 -61.4797 560.978 -64.1704 562.239C-78.4938 568.955 -93.3056 575.898 -109.167 577.414C-127.433 579.158 -149.442 571.367 -156.172 553.102C-159.706 543.511 -158.794 531.831 -153.385 517.393L-153.057 517.516C-158.434 531.871 -159.345 543.472 -155.842 552.979C-149.173 571.079 -127.326 578.796 -109.2 577.064C-93.3998 575.554 -78.6161 568.624 -64.3194 561.921C-61.628 560.659 -58.8452 559.355 -56.1075 558.111C-39.6654 550.642 -20.2888 543.595 -1.23403 547.943C22.4994 553.361 40.0869 578.357 37.1713 602.525C35.7505 614.309 30.154 625.45 24.7425 636.225C17.3794 650.884 10.4254 664.73 13.0121 680.096C16.9585 703.541 42.5063 717.362 65.7043 718.897C80.9841 719.905 96.3841 717.121 111.272 714.426C119.33 712.967 127.664 711.459 135.906 710.562C146.131 709.451 161.148 708.765 173.46 715.596C188.556 723.972 195.097 739.818 202.021 756.595C206.078 766.423 210.272 776.587 216.345 785.045C231.013 805.474 259.015 817.337 289.401 815.994C318.049 814.733 345.141 803.256 368.285 792.598L368.432 792.919C345.258 803.589 318.129 815.082 289.416 816.345C287.877 816.413 286.337 816.447 284.802 816.447Z" fill="#FA2F56"/>
<path d="M280.143 819.508C267.438 819.508 254.953 817.198 243.773 812.755C230.204 807.361 219.01 798.909 211.401 788.31C205.305 779.819 201.102 769.637 197.037 759.79C190.137 743.071 183.62 727.28 168.631 718.965C156.406 712.181 141.462 712.867 131.286 713.972C123.055 714.867 114.728 716.375 106.675 717.833C91.7679 720.531 76.356 723.325 61.0221 722.308C37.6871 720.764 11.984 706.84 8.00663 683.214C5.40097 667.735 12.3803 653.84 19.7694 639.128C25.1676 628.38 30.7499 617.265 32.1638 605.543C35.0583 581.544 17.5944 556.726 -5.97173 551.347C-24.9232 547.019 -44.2323 554.047 -60.621 561.492C-63.3574 562.735 -66.1387 564.038 -68.8287 565.3C-83.1528 572.015 -97.9646 578.959 -113.826 580.474C-132.089 582.214 -154.101 574.429 -160.831 556.162C-164.365 546.571 -163.453 534.891 -158.044 520.454L-157.716 520.577C-163.093 534.932 -164.004 546.532 -160.501 556.04C-153.832 574.14 -131.986 581.86 -113.859 580.124C-98.0588 578.615 -83.2751 571.684 -68.9777 564.981C-66.287 563.72 -63.5042 562.416 -60.7665 561.172C-44.3237 553.703 -24.9471 546.655 -5.89303 551.003C17.8404 556.421 35.4279 581.417 32.5124 605.585C31.0915 617.369 25.4951 628.51 20.0835 639.286C12.7204 653.945 5.76639 667.79 8.35308 683.157C12.2995 706.601 37.8474 720.422 61.0453 721.958C76.3265 722.963 91.7258 720.181 106.613 717.486C114.671 716.028 123.005 714.519 131.247 713.623C141.472 712.513 156.488 711.825 168.801 718.657C183.897 727.033 190.438 742.879 197.362 759.655C201.419 769.484 205.613 779.648 211.686 788.105C226.354 808.535 254.36 820.392 284.742 819.054C313.387 817.794 340.48 806.317 363.627 795.659L363.773 795.979C340.596 806.65 313.466 818.142 284.757 819.406C283.218 819.474 281.678 819.508 280.143 819.508Z" fill="#FA2F56"/>
<path d="M275.483 822.568C262.778 822.568 250.293 820.258 239.113 815.815C225.544 810.422 214.35 801.969 206.741 791.371C200.645 782.88 196.442 772.697 192.376 762.85C185.477 746.131 178.96 730.341 163.971 722.025C151.743 715.24 136.8 715.927 126.626 717.033C118.394 717.928 110.066 719.435 102.012 720.894C87.1058 723.592 71.6918 726.382 56.3621 725.368C33.0264 723.824 7.32325 709.9 3.3466 686.275C0.740939 670.796 7.72029 656.9 15.1093 642.189C20.5076 631.441 26.0899 620.326 27.5038 608.603C30.3982 584.605 12.9344 559.787 -10.6318 554.407C-29.5832 550.078 -48.8924 557.107 -65.281 564.552C-68.0188 565.796 -70.8023 567.1 -73.4944 568.363C-87.8164 575.077 -102.626 582.02 -118.486 583.535C-136.75 585.275 -158.761 577.488 -165.491 559.222C-169.025 549.632 -168.113 537.952 -162.704 523.515L-162.376 523.638C-167.753 537.993 -168.664 549.592 -165.161 559.1C-158.492 577.2 -136.647 584.915 -118.519 583.185C-102.72 581.675 -87.9386 574.746 -73.6433 568.045C-70.9505 566.782 -68.1664 565.477 -65.4265 564.233C-48.9844 556.764 -29.6071 549.715 -10.5531 554.064C13.1804 559.482 30.7679 584.477 27.8523 608.646C26.4314 620.429 20.835 631.571 15.4234 642.346C8.0604 657.006 1.10636 670.85 3.69304 686.217C7.63878 709.661 33.1873 723.482 56.3853 725.018C71.6693 726.026 87.0629 723.242 101.949 720.548C110.009 719.088 118.344 717.58 126.587 716.683C136.81 715.572 151.826 714.885 164.141 721.717C179.237 730.093 185.778 745.939 192.702 762.715C196.759 772.544 200.953 782.708 207.026 791.165C221.694 811.595 249.697 823.461 280.082 822.115C308.726 820.854 335.819 809.378 358.966 798.72L359.113 799.04C335.936 809.711 308.805 821.203 280.097 822.466C278.558 822.535 277.018 822.568 275.483 822.568Z" fill="#FA2F56"/>
<path d="M270.823 825.628C258.118 825.628 245.633 823.318 234.453 818.875C220.884 813.482 209.69 805.03 202.081 794.431C195.984 785.94 191.782 775.757 187.716 765.91C180.817 749.192 174.3 733.401 159.311 725.085C147.085 718.302 132.143 718.986 121.966 720.093C113.736 720.988 105.408 722.495 97.3553 723.953C82.4486 726.652 67.0353 729.444 51.7014 728.428C28.3665 726.884 2.66329 712.96 -1.31336 689.336C-3.91902 673.856 3.06034 659.96 10.4494 645.249C15.8476 634.501 21.43 623.387 22.8438 611.664C25.7376 587.666 8.27375 562.847 -15.2917 557.468C-34.2439 553.14 -53.553 560.168 -69.941 567.612C-72.6774 568.855 -75.4587 570.159 -78.1494 571.42C-92.4728 578.136 -107.285 585.08 -123.146 586.595C-141.411 588.336 -163.422 580.549 -170.151 562.283C-173.685 552.692 -172.773 541.012 -167.364 526.575L-167.035 526.698C-172.413 541.053 -173.324 552.653 -169.822 562.161C-163.152 580.26 -141.307 587.976 -123.179 586.245C-107.379 584.735 -92.5951 577.805 -78.2984 571.103C-75.6077 569.841 -72.8242 568.536 -70.0865 567.293C-53.6451 559.823 -34.2671 552.777 -15.213 557.124C8.5197 562.542 26.1072 587.538 23.1924 611.706C21.7715 623.49 16.1751 634.631 10.7635 645.406C3.40045 660.065 -3.5536 673.911 -0.966916 689.277C2.97882 712.722 28.5267 726.543 51.7246 728.078C67.0114 729.092 82.4058 726.302 97.2934 723.607C105.351 722.148 113.685 720.64 121.927 719.743C132.152 718.632 147.168 717.946 159.481 724.778C174.577 733.153 181.118 748.999 188.042 765.776C192.099 775.605 196.293 785.768 202.366 794.226C217.033 814.655 245.021 826.515 275.422 825.175C304.07 823.914 331.161 812.438 354.306 801.779L354.453 802.099C331.278 812.771 304.149 824.263 275.437 825.526C273.898 825.594 272.358 825.628 270.823 825.628Z" fill="#FA2F56"/>
<path d="M266.164 828.689C253.459 828.689 240.974 826.379 229.794 821.936C216.225 816.542 205.031 808.09 197.422 797.491C191.326 789 187.123 778.818 183.058 768.971C176.158 752.253 169.641 736.462 154.652 728.146C142.427 721.363 127.483 722.047 117.307 723.154C109.077 724.049 100.749 725.556 92.6963 727.014C77.7889 729.712 62.3749 732.506 47.0424 731.489C23.7075 729.945 -1.99569 716.021 -5.97304 692.396C-8.578 676.917 -1.59935 663.021 5.79038 648.31C11.1886 637.562 16.771 626.447 18.1848 614.724C21.0786 590.726 3.61476 565.907 -19.9507 560.529C-38.9022 556.201 -58.2113 563.229 -74.6007 570.673C-77.3364 571.916 -80.1177 573.22 -82.807 574.481C-97.1311 581.196 -111.943 588.14 -127.805 589.655C-146.071 591.395 -168.08 583.61 -174.81 565.344C-178.344 555.752 -177.432 544.073 -172.023 529.635L-171.694 529.758C-177.072 544.113 -177.983 555.713 -174.481 565.222C-167.811 583.322 -145.965 591.041 -127.838 589.305C-112.037 587.796 -97.2534 580.865 -82.956 574.163C-80.266 572.901 -77.4832 571.597 -74.7462 570.353C-58.3034 562.884 -38.9268 555.836 -19.872 560.185C3.86071 565.602 21.4482 590.598 18.5334 614.766C17.1125 626.55 11.5161 637.692 6.1038 648.468C-1.25853 663.126 -8.2126 676.972 -5.62591 692.338C-1.68018 715.783 23.8684 729.604 47.0656 731.139C62.351 732.147 77.7461 729.363 92.6338 726.668C100.692 725.209 109.026 723.701 117.268 722.804C127.493 721.693 142.509 721.007 154.822 727.838C169.918 736.214 176.459 752.06 183.383 768.837C187.44 778.665 191.634 788.829 197.707 797.287C212.374 817.715 240.364 829.571 270.763 828.236C299.408 826.975 326.5 815.498 349.647 804.84L349.794 805.16C326.617 815.831 299.486 827.324 270.778 828.587C269.239 828.654 267.699 828.689 266.164 828.689Z" fill="#FA2F56"/>
<path d="M261.504 831.75C248.799 831.75 236.314 829.44 225.134 824.996C211.566 819.603 200.371 811.15 192.762 800.552C186.665 792.061 182.463 781.878 178.397 772.031C171.498 755.313 164.981 739.522 149.992 731.206C137.766 724.424 122.824 725.107 112.647 726.215C104.414 727.109 96.0866 728.617 88.0321 730.075C73.1262 732.773 57.7143 735.564 42.3825 734.55C19.0475 733.006 -6.65566 719.081 -10.633 695.457C-13.238 679.977 -6.25933 666.081 1.1304 651.371C6.52864 640.622 12.111 629.507 13.5249 617.785C16.4186 593.786 -1.04522 568.967 -24.6107 563.589C-43.5643 559.26 -62.872 566.288 -79.2607 573.734C-81.9977 574.977 -84.7812 576.282 -87.4726 577.544C-101.795 584.258 -116.605 591.201 -132.465 592.716C-150.736 594.456 -172.74 586.671 -179.47 568.404C-183.004 558.814 -182.092 547.133 -176.683 532.696L-176.355 532.819C-181.732 547.174 -182.643 558.774 -179.141 568.283C-172.471 586.382 -150.626 594.101 -132.498 592.366C-116.699 590.857 -101.917 583.927 -87.6216 577.225C-84.9295 575.963 -82.1453 574.658 -79.4061 573.414C-62.9627 565.945 -43.5868 558.898 -24.532 563.245C-0.799268 568.663 16.7883 593.658 13.8734 617.827C12.4525 629.611 6.85612 640.753 1.44382 651.528C-5.9185 666.187 -12.8726 680.032 -10.2859 695.399C-6.33945 718.843 19.2084 732.664 42.4057 734.2C57.6911 735.205 73.084 732.423 87.9696 729.729C96.0297 728.27 104.365 726.761 112.608 725.865C122.833 724.754 137.849 724.068 150.162 730.898C165.258 739.274 171.799 755.12 178.723 771.897C182.78 781.725 186.974 791.889 193.047 800.347C207.714 820.776 235.698 832.641 266.103 831.296C294.748 830.036 321.84 818.559 344.987 807.901L345.134 808.221C321.957 818.892 294.826 830.384 266.118 831.648C264.579 831.715 263.039 831.75 261.504 831.75Z" fill="#FA2F56"/>
<path d="M256.847 834.81C244.142 834.81 231.655 832.5 220.475 828.056C206.906 822.663 195.711 814.211 188.103 803.612C182.006 795.122 177.804 784.939 173.738 775.091C166.838 758.373 160.321 742.583 145.333 734.267C133.107 727.483 118.164 728.169 107.988 729.274C99.7567 730.169 91.4296 731.676 83.3772 733.135C68.4691 735.833 53.0565 738.625 37.7233 737.609C14.3883 736.066 -11.3148 722.141 -15.2922 698.516C-17.8971 683.037 -10.9177 669.142 -3.52872 654.431C1.86953 643.683 7.45188 632.569 8.86574 620.845C11.7602 596.847 -5.70433 572.028 -29.2698 566.649C-48.2178 562.322 -67.5297 569.35 -83.9198 576.794C-86.6555 578.037 -89.4368 579.34 -92.1268 580.602C-106.451 587.317 -121.262 594.261 -137.124 595.777C-155.389 597.517 -177.399 589.73 -184.129 571.464C-187.663 561.874 -186.751 550.193 -181.343 535.756L-181.014 535.879C-186.391 550.234 -187.302 561.834 -183.799 571.342C-177.13 589.442 -155.283 597.158 -137.157 595.427C-121.356 593.917 -106.573 586.986 -92.2758 580.283C-89.5851 579.022 -86.8023 577.718 -84.0653 576.474C-67.6218 569.005 -48.2438 561.958 -29.1911 566.306C-5.45839 571.723 12.1291 596.719 9.21428 620.887C7.7934 632.671 2.19698 643.813 -3.21532 654.589C-10.5776 669.247 -17.5317 683.092 -14.945 698.458C-10.9993 721.903 14.5493 735.724 37.7465 737.259C53.0341 738.272 68.427 735.484 83.3139 732.789C91.3727 731.329 99.7068 729.821 107.949 728.925C118.173 727.814 133.19 727.127 145.503 733.959C160.599 742.334 167.14 758.181 174.064 774.957C178.12 784.785 182.315 794.949 188.388 803.407C203.055 823.836 231.045 835.697 261.444 834.357C290.089 833.096 317.181 821.619 340.328 810.961L340.475 811.281C317.298 821.953 290.167 833.445 261.459 834.708C259.92 834.776 258.382 834.81 256.847 834.81Z" fill="#FA2F56"/>
<path d="M248.493 718.008C247.256 717.709 245.211 718.927 244.197 719.63C244.028 718.408 243.538 716.078 242.482 715.37C240.702 714.178 239.437 715.818 239.062 717.606C238.485 720.363 241.411 725.993 241.411 725.993C241.411 725.993 247.525 724.33 249.162 722.038C250.226 720.552 250.574 718.51 248.493 718.008Z" fill="#FA2F56"/>
<path d="M225.557 680.857C223.548 681.557 221.775 685.121 220.985 687.028C219.64 685.463 216.842 682.629 214.715 682.591C211.133 682.526 210.838 685.978 211.931 688.832C213.616 693.233 222.829 698.5 222.829 698.5C222.829 698.5 229.922 690.624 230.149 685.918C230.299 682.866 228.939 679.677 225.557 680.857Z" fill="#FA2F56"/>
<path d="M23.2606 529.719C21.2951 529.161 17.9347 530.984 16.2616 532.047C16.0676 530.074 15.4317 526.304 13.781 525.1C11.0025 523.073 8.86482 525.623 8.14876 528.47C7.04479 532.858 11.3812 542.082 11.3812 542.082C11.3812 542.082 21.3014 539.806 24.0779 536.232C25.8782 533.915 26.569 530.659 23.2606 529.719Z" fill="#FA2F56"/>
<path d="M23.6996 506.602C22.486 507.032 21.4235 509.192 20.9505 510.348C20.1326 509.405 18.432 507.699 17.1454 507.682C14.9789 507.653 14.8095 509.742 15.4792 511.466C16.5108 514.123 22.0988 517.283 22.0988 517.283C22.0988 517.283 26.3678 512.499 26.4921 509.651C26.5729 507.804 25.7416 505.88 23.6996 506.602Z" fill="#FA2F56"/>
<path d="M192.741 -104.682C204.404 -122.691 220.277 -137.662 239.154 -147.86C264.739 -161.68 293.895 -168.747 322.838 -166.581C365.936 -163.357 407.584 -138.642 428.356 -100.743C442.683 -74.6022 446.944 -43.8425 461.546 -17.855C474.781 5.69922 496.224 24.8328 504.315 50.6109C516.697 90.0597 490.232 135.826 451.129 149.26C412.025 162.693 366.033 145.891 340.558 113.325C327.117 96.144 318.164 74.6974 300.238 62.2666C274.12 44.1559 237.481 50.8965 209.246 36.3033C185.468 24.0139 171.065 -2.62481 169.457 -29.3418C167.85 -56.0597 177.712 -82.5348 192.741 -104.682Z" fill="#ED6CAA"/>
<path d="M278.531 -125.815C294.397 -140.258 313.56 -150.692 334.411 -155.744C362.674 -162.591 392.668 -161.996 420.104 -152.529C460.959 -138.431 494.936 -103.922 505.368 -61.9812C512.563 -33.053 508.847 -2.22322 516.347 26.6273C523.145 52.776 539.006 76.7399 540.263 103.729C542.186 145.031 504.936 182.546 463.701 185.574C422.464 188.602 382.271 160.638 365.933 122.657C357.313 102.618 354.118 79.5982 339.949 63.0113C319.307 38.8447 282.16 36.0286 258.574 14.7235C238.712 -3.2179 231.57 -32.6468 236.823 -58.8922C242.074 -85.1378 258.355 -108.226 278.531 -125.815Z" fill="#EE7D91"/>
<path d="M504.362 304.253L503.363 304.229C504.217 267.169 481.277 230.499 447.576 215.056C435.613 209.573 422.51 206.591 409.838 203.708C400.408 201.561 390.656 199.342 381.393 196.106C330.7 178.392 293.894 126.56 293.876 72.8629C293.869 53.7246 298.112 34.7071 302.216 16.3154C305.344 2.30208 308.575 -12.1899 309.914 -26.6538C312.989 -59.8649 302.212 -99.0717 271.208 -111.798L271.587 -112.725C303.065 -99.803 314.018 -60.1391 310.911 -26.5612C309.565 -12.0343 306.326 2.48769 303.192 16.5335C299.1 34.8715 294.869 53.8343 294.875 72.8616C294.893 126.149 331.419 177.583 381.722 195.161C390.934 198.38 400.656 200.592 410.06 202.733C422.782 205.627 435.936 208.622 447.993 214.146C482.047 229.751 505.225 266.804 504.362 304.253Z" fill="#FA2F56"/>
<path d="M347.658 171.049C346.857 172.673 347.907 175.893 348.565 177.52C346.816 177.373 343.428 177.322 342.115 178.568C339.903 180.665 341.783 182.935 344.148 184.015C347.795 185.68 356.526 183.38 356.526 183.38C356.526 183.38 356.132 174.372 353.462 171.381C351.733 169.44 349.006 168.317 347.658 171.049Z" fill="#FA2F56"/>
<path d="M163.983 71.9448C162.746 71.6462 160.701 72.864 159.687 73.5667C159.518 72.3447 159.029 70.0145 157.972 69.3068C156.192 68.115 154.927 69.7545 154.552 71.5429C153.975 74.3003 156.901 79.9297 156.901 79.9297C156.901 79.9297 163.015 78.2671 164.652 75.9749C165.716 74.4893 166.064 72.4465 163.983 71.9448Z" fill="#FA2F56"/>
<path d="M141.048 34.7936C139.038 35.4936 137.265 39.0582 136.475 40.9648C135.13 39.3996 132.332 36.5655 130.205 36.5274C126.623 36.4627 126.328 39.9145 127.421 42.7688C129.106 47.1698 138.319 52.4368 138.319 52.4368C138.319 52.4368 145.412 44.5613 145.639 39.8548C145.789 36.8027 144.429 33.6142 141.048 34.7936Z" fill="#FA2F56"/>
<path d="M546.058 866.075C526.777 875.487 505.456 880.125 484.024 879.124C454.977 877.767 426.354 868.781 402.676 851.997C367.417 827.003 344.486 784.348 346.24 741.165C347.45 711.38 359.666 682.83 360.562 653.035C361.373 626.029 352.872 598.576 359.238 572.319C368.979 532.137 415.258 506.579 455.688 515.242C496.117 523.904 526.851 562.022 531.877 603.061C534.529 624.714 531.137 647.705 540.082 667.601C553.115 696.589 587.981 709.714 604.642 736.78C618.673 759.573 617.271 789.824 604.867 813.541C592.462 837.259 570.357 854.853 546.058 866.075Z" fill="#ED6CAA"/>
<path d="M524.975 912.354C503.933 916.543 482.133 915.597 461.664 909.169C433.92 900.457 408.531 884.476 389.91 862.213C362.182 829.062 350.875 781.972 363.572 740.66C372.33 712.166 391.416 687.671 399.872 659.086C407.536 633.178 406.309 604.467 419.154 580.697C438.811 544.322 490.075 531.398 526.962 550.074C563.851 568.75 583.86 613.439 578.266 654.405C575.314 676.019 566.177 697.388 569.759 718.906C574.978 750.258 605.348 771.831 614.565 802.249C622.326 827.865 613.264 856.761 595.226 876.536C577.189 896.311 551.332 907.693 524.975 912.354Z" fill="#EE7D91"/>
<path d="M31.164 147.59C9.913 171.201 -20.255 177.536 -48.714 178.242C-71.784 178.814 -95.88 175.965 -115.559 160.941C-135.238 145.917 -149.066 115.902 -143.018 88.1395C-136.512 58.2705 -110.965 41.8575 -87.124 33.2265C-49.283 19.5275 16.672 4.5875 51.962 34.5875C83.242 61.1805 52.237 124.177 31.164 147.59Z" fill="#EE7D91"/>
<path d="M95.556 51.9484C96.354 51.9484 97 52.6024 97 53.4064C97 54.1974 96.354 54.8664 95.556 54.8664C94.743 54.8664 94.097 54.1974 94.097 53.4064C94.097 52.6024 94.743 51.9484 95.556 51.9484Z" fill="#FA2F56"/>
<path d="M86.522 51.9484C87.32 51.9484 87.966 52.6024 87.966 53.4064C87.966 54.1974 87.32 54.8664 86.522 54.8664C85.717 54.8664 85.063 54.1974 85.063 53.4064C85.063 52.6024 85.717 51.9484 86.522 51.9484Z" fill="#FA2F56"/>
<path d="M77.48 51.9484C78.285 51.9484 78.939 52.6024 78.939 53.4064C78.939 54.1974 78.285 54.8664 77.48 54.8664C76.682 54.8664 76.036 54.1974 76.036 53.4064C76.036 52.6024 76.682 51.9484 77.48 51.9484Z" fill="#FA2F56"/>
<path d="M68.445 51.9484C69.243 51.9484 69.904 52.6024 69.904 53.4064C69.904 54.1974 69.243 54.8664 68.445 54.8664C67.639 54.8664 66.986 54.1974 66.986 53.4064C66.986 52.6024 67.639 51.9484 68.445 51.9484Z" fill="#FA2F56"/>
<path d="M59.41 51.9484C60.208 51.9484 60.861 52.6024 60.861 53.4064C60.861 54.1974 60.208 54.8664 59.41 54.8664C58.604 54.8664 57.951 54.1974 57.951 53.4064C57.951 52.6024 58.604 51.9484 59.41 51.9484Z" fill="#FA2F56"/>
<path d="M50.368 51.9484C51.181 51.9484 51.827 52.6024 51.827 53.4064C51.827 54.1974 51.181 54.8664 50.368 54.8664C49.57 54.8664 48.924 54.1974 48.924 53.4064C48.924 52.6024 49.57 51.9484 50.368 51.9484Z" fill="#FA2F56"/>
<path d="M41.333 51.9484C42.146 51.9484 42.792 52.6024 42.792 53.4064C42.792 54.1974 42.146 54.8664 41.333 54.8664C40.543 54.8664 39.874 54.1974 39.874 53.4064C39.874 52.6024 40.543 51.9484 41.333 51.9484Z" fill="#FA2F56"/>
<path d="M32.306 51.9484C33.104 51.9484 33.75 52.6024 33.75 53.4064C33.75 54.1974 33.104 54.8664 32.306 54.8664C31.493 54.8664 30.847 54.1974 30.847 53.4064C30.847 52.6024 31.493 51.9484 32.306 51.9484Z" fill="#FA2F56"/>
<path d="M23.271 51.9484C24.069 51.9484 24.715 52.6024 24.715 53.4064C24.715 54.1974 24.069 54.8664 23.271 54.8664C22.458 54.8664 21.812 54.1974 21.812 53.4064C21.812 52.6024 22.458 51.9484 23.271 51.9484Z" fill="#FA2F56"/>
<path d="M14.229 51.9484C15.034 51.9484 15.688 52.6024 15.688 53.4064C15.688 54.1974 15.034 54.8664 14.229 54.8664C13.431 54.8664 12.778 54.1974 12.778 53.4064C12.778 52.6024 13.431 51.9484 14.229 51.9484Z" fill="#FA2F56"/>
<path d="M5.19496 51.9484C5.99996 51.9484 6.65396 52.6024 6.65396 53.4064C6.65396 54.1974 5.99996 54.8664 5.19496 54.8664C4.38196 54.8664 3.73596 54.1974 3.73596 53.4064C3.73596 52.6024 4.38196 51.9484 5.19496 51.9484Z" fill="#FA2F56"/>
<path d="M95.556 61.1423C96.278 61.1423 96.855 61.7193 96.855 62.4343C96.855 63.1633 96.278 63.7573 95.556 63.7573C94.834 63.7573 94.241 63.1633 94.241 62.4343C94.241 61.7193 94.834 61.1423 95.556 61.1423Z" fill="#FA2F56"/>
<path d="M86.522 61.1423C87.236 61.1423 87.821 61.7193 87.821 62.4343C87.821 63.1633 87.236 63.7573 86.522 63.7573C85.8 63.7573 85.215 63.1633 85.215 62.4343C85.215 61.7193 85.8 61.1423 86.522 61.1423Z" fill="#FA2F56"/>
<path d="M77.48 61.1423C78.202 61.1423 78.787 61.7193 78.787 62.4343C78.787 63.1633 78.202 63.7573 77.48 63.7573C76.766 63.7573 76.181 63.1633 76.181 62.4343C76.181 61.7193 76.766 61.1423 77.48 61.1423Z" fill="#FA2F56"/>
<path d="M68.445 61.1423C69.167 61.1423 69.744 61.7193 69.744 62.4343C69.744 63.1633 69.167 63.7573 68.445 63.7573C67.723 63.7573 67.146 63.1633 67.146 62.4343C67.146 61.7193 67.723 61.1423 68.445 61.1423Z" fill="#FA2F56"/>
<path d="M59.41 61.1423C60.124 61.1423 60.709 61.7193 60.709 62.4343C60.709 63.1633 60.124 63.7573 59.41 63.7573C58.688 63.7573 58.103 63.1633 58.103 62.4343C58.103 61.7193 58.688 61.1423 59.41 61.1423Z" fill="#FA2F56"/>
<path d="M50.368 61.1423C51.09 61.1423 51.683 61.7193 51.683 62.4343C51.683 63.1633 51.09 63.7573 50.368 63.7573C49.661 63.7573 49.069 63.1633 49.069 62.4343C49.069 61.7193 49.661 61.1423 50.368 61.1423Z" fill="#FA2F56"/>
<path d="M41.333 61.1423C42.062 61.1423 42.632 61.7193 42.632 62.4343C42.632 63.1633 42.062 63.7573 41.333 63.7573C40.611 63.7573 40.034 63.1633 40.034 62.4343C40.034 61.7193 40.611 61.1423 41.333 61.1423Z" fill="#FA2F56"/>
<path d="M32.306 61.1423C33.028 61.1423 33.605 61.7193 33.605 62.4343C33.605 63.1633 33.028 63.7573 32.306 63.7573C31.584 63.7573 30.991 63.1633 30.991 62.4343C30.991 61.7193 31.584 61.1423 32.306 61.1423Z" fill="#FA2F56"/>
<path d="M23.271 61.1423C23.978 61.1423 24.57 61.7193 24.57 62.4343C24.57 63.1633 23.978 63.7573 23.271 63.7573C22.549 63.7573 21.956 63.1633 21.956 62.4343C21.956 61.7193 22.549 61.1423 23.271 61.1423Z" fill="#FA2F56"/>
<path d="M14.229 61.1423C14.951 61.1423 15.536 61.7193 15.536 62.4343C15.536 63.1633 14.951 63.7573 14.229 63.7573C13.515 63.7573 12.93 63.1633 12.93 62.4343C12.93 61.7193 13.515 61.1423 14.229 61.1423Z" fill="#FA2F56"/>
<path d="M5.195 61.1423C5.917 61.1423 6.494 61.7193 6.494 62.4343C6.494 63.1633 5.917 63.7573 5.195 63.7573C4.473 63.7573 3.896 63.1633 3.896 62.4343C3.896 61.7193 4.473 61.1423 5.195 61.1423Z" fill="#FA2F56"/>
<path d="M95.5559 70.2911C96.2019 70.2911 96.7339 70.8231 96.7339 71.4771C96.7339 72.1291 96.2019 72.6611 95.5559 72.6611C94.9029 72.6611 94.3779 72.1291 94.3779 71.4771C94.3779 70.8231 94.9029 70.2911 95.5559 70.2911Z" fill="#FA2F56"/>
<path d="M86.522 70.2911C87.176 70.2911 87.7 70.8231 87.7 71.4771C87.7 72.1291 87.176 72.6611 86.522 72.6611C85.861 72.6611 85.337 72.1291 85.337 71.4771C85.337 70.8231 85.861 70.2911 86.522 70.2911Z" fill="#FA2F56"/>
<path d="M77.48 70.2911C78.126 70.2911 78.658 70.8231 78.658 71.4771C78.658 72.1291 78.126 72.6611 77.48 72.6611C76.826 72.6611 76.302 72.1291 76.302 71.4771C76.302 70.8231 76.826 70.2911 77.48 70.2911Z" fill="#FA2F56"/>
<path d="M68.445 70.2911C69.098 70.2911 69.623 70.8231 69.623 71.4771C69.623 72.1291 69.098 72.6611 68.445 72.6611C67.799 72.6611 67.267 72.1291 67.267 71.4771C67.267 70.8231 67.799 70.2911 68.445 70.2911Z" fill="#FA2F56"/>
<path d="M59.41 70.2911C60.063 70.2911 60.588 70.8231 60.588 71.4771C60.588 72.1291 60.063 72.6611 59.41 72.6611C58.764 72.6611 58.24 72.1291 58.24 71.4771C58.24 70.8231 58.764 70.2911 59.41 70.2911Z" fill="#FA2F56"/>
<path d="M50.368 70.2911C51.021 70.2911 51.561 70.8231 51.561 71.4771C51.561 72.1291 51.021 72.6611 50.368 72.6611C49.722 72.6611 49.19 72.1291 49.19 71.4771C49.19 70.8231 49.722 70.2911 50.368 70.2911Z" fill="#FA2F56"/>
<path d="M41.333 70.2911C41.987 70.2911 42.511 70.8231 42.511 71.4771C42.511 72.1291 41.987 72.6611 41.333 72.6611C40.687 72.6611 40.163 72.1291 40.163 71.4771C40.163 70.8231 40.687 70.2911 41.333 70.2911Z" fill="#FA2F56"/>
<path d="M32.306 70.2911C32.952 70.2911 33.484 70.8231 33.484 71.4771C33.484 72.1291 32.952 72.6611 32.306 72.6611C31.652 72.6611 31.128 72.1291 31.128 71.4771C31.128 70.8231 31.652 70.2911 32.306 70.2911Z" fill="#FA2F56"/>
<path d="M23.271 70.2911C23.917 70.2911 24.449 70.8231 24.449 71.4771C24.449 72.1291 23.917 72.6611 23.271 72.6611C22.61 72.6611 22.078 72.1291 22.078 71.4771C22.078 70.8231 22.61 70.2911 23.271 70.2911Z" fill="#FA2F56"/>
<path d="M14.229 70.2911C14.875 70.2911 15.399 70.8231 15.399 71.4771C15.399 72.1291 14.875 72.6611 14.229 72.6611C13.575 72.6611 13.051 72.1291 13.051 71.4771C13.051 70.8231 13.575 70.2911 14.229 70.2911Z" fill="#FA2F56"/>
<path d="M5.19497 70.2911C5.84097 70.2911 6.37297 70.8231 6.37297 71.4771C6.37297 72.1291 5.84097 72.6611 5.19497 72.6611C4.54197 72.6611 4.01697 72.1291 4.01697 71.4771C4.01697 70.8231 4.54197 70.2911 5.19497 70.2911Z" fill="#FA2F56"/>
<path d="M95.556 79.4851C96.118 79.4851 96.582 79.9411 96.582 80.5181C96.582 81.0801 96.118 81.5521 95.556 81.5521C94.978 81.5521 94.522 81.0801 94.522 80.5181C94.522 79.9411 94.978 79.4851 95.556 79.4851Z" fill="#FA2F56"/>
<path d="M86.522 79.4851C87.084 79.4851 87.54 79.9411 87.54 80.5181C87.54 81.0801 87.084 81.5521 86.522 81.5521C85.944 81.5521 85.496 81.0801 85.496 80.5181C85.496 79.9411 85.944 79.4851 86.522 79.4851Z" fill="#FA2F56"/>
<path d="M77.48 79.4851C78.057 79.4851 78.506 79.9411 78.506 80.5181C78.506 81.0801 78.057 81.5521 77.48 81.5521C76.918 81.5521 76.446 81.0801 76.446 80.5181C76.446 79.9411 76.918 79.4851 77.48 79.4851Z" fill="#FA2F56"/>
<path d="M68.445 79.4851C69.007 79.4851 69.478 79.9411 69.478 80.5181C69.478 81.0801 69.007 81.5521 68.445 81.5521C67.883 81.5521 67.419 81.0801 67.419 80.5181C67.419 79.9411 67.883 79.4851 68.445 79.4851Z" fill="#FA2F56"/>
<path d="M59.41 79.4851C59.98 79.4851 60.443 79.9411 60.443 80.5181C60.443 81.0801 59.98 81.5521 59.41 81.5521C58.84 81.5521 58.384 81.0801 58.384 80.5181C58.384 79.9411 58.84 79.4851 59.41 79.4851Z" fill="#FA2F56"/>
<path d="M50.368 79.4851C50.945 79.4851 51.401 79.9411 51.401 80.5181C51.401 81.0801 50.945 81.5521 50.368 81.5521C49.806 81.5521 49.35 81.0801 49.35 80.5181C49.35 79.9411 49.806 79.4851 50.368 79.4851Z" fill="#FA2F56"/>
<path d="M41.333 79.4851C41.903 79.4851 42.366 79.9411 42.366 80.5181C42.366 81.0801 41.903 81.5521 41.333 81.5521C40.771 81.5521 40.307 81.0801 40.307 80.5181C40.307 79.9411 40.771 79.4851 41.333 79.4851Z" fill="#FA2F56"/>
<path d="M32.306 79.4851C32.868 79.4851 33.332 79.9411 33.332 80.5181C33.332 81.0801 32.868 81.5521 32.306 81.5521C31.736 81.5521 31.273 81.0801 31.273 80.5181C31.273 79.9411 31.736 79.4851 32.306 79.4851Z" fill="#FA2F56"/>
<path d="M23.271 79.4851C23.833 79.4851 24.289 79.9411 24.289 80.5181C24.289 81.0801 23.833 81.5521 23.271 81.5521C22.694 81.5521 22.238 81.0801 22.238 80.5181C22.238 79.9411 22.694 79.4851 23.271 79.4851Z" fill="#FA2F56"/>
<path d="M14.229 79.4851C14.799 79.4851 15.255 79.9411 15.255 80.5181C15.255 81.0801 14.799 81.5521 14.229 81.5521C13.659 81.5521 13.196 81.0801 13.196 80.5181C13.196 79.9411 13.659 79.4851 14.229 79.4851Z" fill="#FA2F56"/>
<path d="M5.19499 79.4851C5.75699 79.4851 6.22099 79.9411 6.22099 80.5181C6.22099 81.0801 5.75699 81.5521 5.19499 81.5521C4.63299 81.5521 4.16199 81.0801 4.16199 80.5181C4.16199 79.9411 4.63299 79.4851 5.19499 79.4851Z" fill="#FA2F56"/>
<path d="M95.556 88.6494C96.042 88.6494 96.453 89.0444 96.453 89.5454C96.453 90.0474 96.042 90.4574 95.556 90.4574C95.054 90.4574 94.652 90.0474 94.652 89.5454C94.652 89.0444 95.054 88.6494 95.556 88.6494Z" fill="#FA2F56"/>
<path d="M86.522 88.6494C87.016 88.6494 87.419 89.0444 87.419 89.5454C87.419 90.0474 87.016 90.4574 86.522 90.4574C86.021 90.4574 85.618 90.0474 85.618 89.5454C85.618 89.0444 86.021 88.6494 86.522 88.6494Z" fill="#FA2F56"/>
<path d="M77.48 88.6494C77.981 88.6494 78.384 89.0444 78.384 89.5454C78.384 90.0474 77.981 90.4574 77.48 90.4574C76.986 90.4574 76.583 90.0474 76.583 89.5454C76.583 89.0444 76.986 88.6494 77.48 88.6494Z" fill="#FA2F56"/>
<path d="M68.445 88.6494C68.946 88.6494 69.349 89.0444 69.349 89.5454C69.349 90.0474 68.946 90.4574 68.445 90.4574C67.944 90.4574 67.541 90.0474 67.541 89.5454C67.541 89.0444 67.944 88.6494 68.445 88.6494Z" fill="#FA2F56"/>
<path d="M59.41 88.6494C59.904 88.6494 60.306 89.0444 60.306 89.5454C60.306 90.0474 59.904 90.4574 59.41 90.4574C58.908 90.4574 58.506 90.0474 58.506 89.5454C58.506 89.0444 58.908 88.6494 59.41 88.6494Z" fill="#FA2F56"/>
<path d="M50.368 88.6494C50.869 88.6494 51.272 89.0444 51.272 89.5454C51.272 90.0474 50.869 90.4574 50.368 90.4574C49.882 90.4574 49.471 90.0474 49.471 89.5454C49.471 89.0444 49.882 88.6494 50.368 88.6494Z" fill="#FA2F56"/>
<path d="M41.333 88.6494C41.842 88.6494 42.245 89.0444 42.245 89.5454C42.245 90.0474 41.842 90.4574 41.333 90.4574C40.832 90.4574 40.429 90.0474 40.429 89.5454C40.429 89.0444 40.832 88.6494 41.333 88.6494Z" fill="#FA2F56"/>
<path d="M32.306 88.6494C32.792 88.6494 33.195 89.0444 33.195 89.5454C33.195 90.0474 32.792 90.4574 32.306 90.4574C31.805 90.4574 31.394 90.0474 31.394 89.5454C31.394 89.0444 31.805 88.6494 32.306 88.6494Z" fill="#FA2F56"/>
<path d="M23.271 88.6494C23.757 88.6494 24.168 89.0444 24.168 89.5454C24.168 90.0474 23.757 90.4574 23.271 90.4574C22.77 90.4574 22.367 90.0474 22.367 89.5454C22.367 89.0444 22.77 88.6494 23.271 88.6494Z" fill="#FA2F56"/>
<path d="M14.229 88.6494C14.73 88.6494 15.133 89.0444 15.133 89.5454C15.133 90.0474 14.73 90.4574 14.229 90.4574C13.735 90.4574 13.332 90.0474 13.332 89.5454C13.332 89.0444 13.735 88.6494 14.229 88.6494Z" fill="#FA2F56"/>
<path d="M5.19502 88.6494C5.69702 88.6494 6.09902 89.0444 6.09902 89.5454C6.09902 90.0474 5.69702 90.4574 5.19502 90.4574C4.69402 90.4574 4.29102 90.0474 4.29102 89.5454C4.29102 89.0444 4.69402 88.6494 5.19502 88.6494Z" fill="#FA2F56"/>
<path d="M95.556 97.8434C95.974 97.8434 96.301 98.1624 96.301 98.5874C96.301 98.9984 95.974 99.3484 95.556 99.3484C95.138 99.3484 94.796 98.9984 94.796 98.5874C94.796 98.1624 95.138 97.8434 95.556 97.8434Z" fill="#FA2F56"/>
<path d="M86.522 97.8434C86.925 97.8434 87.274 98.1624 87.274 98.5874C87.274 98.9984 86.925 99.3484 86.522 99.3484C86.104 99.3484 85.762 98.9984 85.762 98.5874C85.762 98.1624 86.104 97.8434 86.522 97.8434Z" fill="#FA2F56"/>
<path d="M77.48 97.8434C77.898 97.8434 78.24 98.1624 78.24 98.5874C78.24 98.9984 77.898 99.3484 77.48 99.3484C77.062 99.3484 76.728 98.9984 76.728 98.5874C76.728 98.1624 77.062 97.8434 77.48 97.8434Z" fill="#FA2F56"/>
<path d="M68.445 97.8434C68.863 97.8434 69.197 98.1624 69.197 98.5874C69.197 98.9984 68.863 99.3484 68.445 99.3484C68.027 99.3484 67.7 98.9984 67.7 98.5874C67.7 98.1624 68.027 97.8434 68.445 97.8434Z" fill="#FA2F56"/>
<path d="M59.41 97.8434C59.828 97.8434 60.162 98.1624 60.162 98.5874C60.162 98.9984 59.828 99.3484 59.41 99.3484C59 99.3484 58.65 98.9984 58.65 98.5874C58.65 98.1624 59 97.8434 59.41 97.8434Z" fill="#FA2F56"/>
<path d="M50.368 97.8434C50.786 97.8434 51.128 98.1624 51.128 98.5874C51.128 98.9984 50.786 99.3484 50.368 99.3484C49.965 99.3484 49.623 98.9984 49.623 98.5874C49.623 98.1624 49.965 97.8434 50.368 97.8434Z" fill="#FA2F56"/>
<path d="M41.333 97.8434C41.751 97.8434 42.085 98.1624 42.085 98.5874C42.085 98.9984 41.751 99.3484 41.333 99.3484C40.923 99.3484 40.588 98.9984 40.588 98.5874C40.588 98.1624 40.923 97.8434 41.333 97.8434Z" fill="#FA2F56"/>
<path d="M32.306 97.8434C32.724 97.8434 33.051 98.1624 33.051 98.5874C33.051 98.9984 32.724 99.3484 32.306 99.3484C31.888 99.3484 31.546 98.9984 31.546 98.5874C31.546 98.1624 31.888 97.8434 32.306 97.8434Z" fill="#FA2F56"/>
<path d="M23.271 97.8434C23.674 97.8434 24.016 98.1624 24.016 98.5874C24.016 98.9984 23.674 99.3484 23.271 99.3484C22.853 99.3484 22.511 98.9984 22.511 98.5874C22.511 98.1624 22.853 97.8434 23.271 97.8434Z" fill="#FA2F56"/>
<path d="M14.229 97.8434C14.639 97.8434 14.989 98.1624 14.989 98.5874C14.989 98.9984 14.639 99.3484 14.229 99.3484C13.811 99.3484 13.477 98.9984 13.477 98.5874C13.477 98.1624 13.811 97.8434 14.229 97.8434Z" fill="#FA2F56"/>
<path d="M5.19501 97.8434C5.61301 97.8434 5.94001 98.1624 5.94001 98.5874C5.94001 98.9984 5.61301 99.3484 5.19501 99.3484C4.77701 99.3484 4.45001 98.9984 4.45001 98.5874C4.45001 98.1624 4.77701 97.8434 5.19501 97.8434Z" fill="#FA2F56"/>
<path d="M95.5559 107.021C95.8829 107.021 96.1559 107.279 96.1559 107.629C96.1559 107.964 95.8829 108.238 95.5559 108.238C95.2219 108.238 94.9559 107.964 94.9559 107.629C94.9559 107.279 95.2219 107.021 95.5559 107.021Z" fill="#FA2F56"/>
<path d="M86.5219 107.021C86.8559 107.021 87.1219 107.279 87.1219 107.629C87.1219 107.964 86.8559 108.238 86.5219 108.238C86.1799 108.238 85.9139 107.964 85.9139 107.629C85.9139 107.279 86.1799 107.021 86.5219 107.021Z" fill="#FA2F56"/>
<path d="M77.48 107.021C77.807 107.021 78.08 107.279 78.08 107.629C78.08 107.964 77.807 108.238 77.48 108.238C77.146 108.238 76.88 107.964 76.88 107.629C76.88 107.279 77.146 107.021 77.48 107.021Z" fill="#FA2F56"/>
<path d="M68.445 107.021C68.779 107.021 69.045 107.279 69.045 107.629C69.045 107.964 68.779 108.238 68.445 108.238C68.118 108.238 67.845 107.964 67.845 107.629C67.845 107.279 68.118 107.021 68.445 107.021Z" fill="#FA2F56"/>
<path d="M59.41 107.021C59.744 107.021 60.01 107.279 60.01 107.629C60.01 107.964 59.744 108.238 59.41 108.238C59.083 108.238 58.81 107.964 58.81 107.629C58.81 107.279 59.083 107.021 59.41 107.021Z" fill="#FA2F56"/>
<path d="M50.368 107.021C50.702 107.021 50.968 107.279 50.968 107.629C50.968 107.964 50.702 108.238 50.368 108.238C50.041 108.238 49.768 107.964 49.768 107.629C49.768 107.279 50.041 107.021 50.368 107.021Z" fill="#FA2F56"/>
<path d="M41.333 107.021C41.667 107.021 41.933 107.279 41.933 107.629C41.933 107.964 41.667 108.238 41.333 108.238C41.006 108.238 40.733 107.964 40.733 107.629C40.733 107.279 41.006 107.021 41.333 107.021Z" fill="#FA2F56"/>
<path d="M32.306 107.021C32.633 107.021 32.906 107.279 32.906 107.629C32.906 107.964 32.633 108.238 32.306 108.238C31.972 108.238 31.706 107.964 31.706 107.629C31.706 107.279 31.972 107.021 32.306 107.021Z" fill="#FA2F56"/>
<path d="M23.271 107.021C23.598 107.021 23.871 107.279 23.871 107.629C23.871 107.964 23.598 108.238 23.271 108.238C22.929 108.238 22.655 107.964 22.655 107.629C22.655 107.279 22.929 107.021 23.271 107.021Z" fill="#FA2F56"/>
<path d="M14.229 107.021C14.556 107.021 14.829 107.279 14.829 107.629C14.829 107.964 14.556 108.238 14.229 108.238C13.895 108.238 13.629 107.964 13.629 107.629C13.629 107.279 13.895 107.021 14.229 107.021Z" fill="#FA2F56"/>
<path d="M5.19497 107.021C5.52197 107.021 5.79497 107.279 5.79497 107.629C5.79497 107.964 5.52197 108.238 5.19497 108.238C4.86097 108.238 4.59497 107.964 4.59497 107.629C4.59497 107.279 4.86097 107.021 5.19497 107.021Z" fill="#FA2F56"/>
<path d="M95.556 116.186C95.814 116.186 96.035 116.399 96.035 116.657C96.035 116.916 95.814 117.143 95.556 117.143C95.282 117.143 95.077 116.916 95.077 116.657C95.077 116.399 95.282 116.186 95.556 116.186Z" fill="#FA2F56"/>
<path d="M86.522 116.186C86.78 116.186 86.986 116.399 86.986 116.657C86.986 116.916 86.78 117.143 86.522 117.143C86.256 117.143 86.043 116.916 86.043 116.657C86.043 116.399 86.256 116.186 86.522 116.186Z" fill="#FA2F56"/>
<path d="M77.48 116.186C77.746 116.186 77.959 116.399 77.959 116.657C77.959 116.916 77.746 117.143 77.48 117.143C77.222 117.143 77.001 116.916 77.001 116.657C77.001 116.399 77.222 116.186 77.48 116.186Z" fill="#FA2F56"/>
<path d="M68.445 116.186C68.703 116.186 68.924 116.399 68.924 116.657C68.924 116.916 68.703 117.143 68.445 117.143C68.179 117.143 67.966 116.916 67.966 116.657C67.966 116.399 68.179 116.186 68.445 116.186Z" fill="#FA2F56"/>
<path d="M59.41 116.186C59.668 116.186 59.889 116.399 59.889 116.657C59.889 116.916 59.668 117.143 59.41 117.143C59.144 117.143 58.939 116.916 58.939 116.657C58.939 116.399 59.144 116.186 59.41 116.186Z" fill="#FA2F56"/>
<path d="M50.368 116.186C50.641 116.186 50.847 116.399 50.847 116.657C50.847 116.916 50.641 117.143 50.368 117.143C50.11 117.143 49.904 116.916 49.904 116.657C49.904 116.399 50.11 116.186 50.368 116.186Z" fill="#FA2F56"/>
<path d="M41.333 116.186C41.606 116.186 41.812 116.399 41.812 116.657C41.812 116.916 41.606 117.143 41.333 117.143C41.082 117.143 40.854 116.916 40.854 116.657C40.854 116.399 41.082 116.186 41.333 116.186Z" fill="#FA2F56"/>
<path d="M32.306 116.186C32.564 116.186 32.785 116.399 32.785 116.657C32.785 116.916 32.564 117.143 32.306 117.143C32.033 117.143 31.827 116.916 31.827 116.657C31.827 116.399 32.033 116.186 32.306 116.186Z" fill="#FA2F56"/>
<path d="M23.271 116.186C23.529 116.186 23.735 116.399 23.735 116.657C23.735 116.916 23.529 117.143 23.271 117.143C22.998 117.143 22.792 116.916 22.792 116.657C22.792 116.399 22.998 116.186 23.271 116.186Z" fill="#FA2F56"/>
<path d="M14.229 116.186C14.495 116.186 14.708 116.399 14.708 116.657C14.708 116.916 14.495 117.143 14.229 117.143C13.971 117.143 13.75 116.916 13.75 116.657C13.75 116.399 13.971 116.186 14.229 116.186Z" fill="#FA2F56"/>
<path d="M5.195 116.186C5.453 116.186 5.674 116.399 5.674 116.657C5.674 116.916 5.453 117.143 5.195 117.143C4.937 117.143 4.716 116.916 4.716 116.657C4.716 116.399 4.937 116.186 5.195 116.186Z" fill="#FA2F56"/>
<path d="M95.556 125.38C95.723 125.38 95.875 125.517 95.875 125.699C95.875 125.883 95.723 126.018 95.556 126.018C95.374 126.018 95.222 125.883 95.222 125.699C95.222 125.517 95.374 125.38 95.556 125.38Z" fill="#FA2F56"/>
<path d="M86.5219 125.38C86.6969 125.38 86.8409 125.517 86.8409 125.699C86.8409 125.883 86.6969 126.018 86.5219 126.018C86.3399 126.018 86.1949 125.883 86.1949 125.699C86.1949 125.517 86.3399 125.38 86.5219 125.38Z" fill="#FA2F56"/>
<path d="M77.48 125.38C77.662 125.38 77.807 125.517 77.807 125.699C77.807 125.883 77.662 126.018 77.48 126.018C77.305 126.018 77.161 125.883 77.161 125.699C77.161 125.517 77.305 125.38 77.48 125.38Z" fill="#FA2F56"/>
<path d="M68.4449 125.38C68.6269 125.38 68.7789 125.517 68.7789 125.699C68.7789 125.883 68.6269 126.018 68.4449 126.018C68.2629 126.018 68.1179 125.883 68.1179 125.699C68.1179 125.517 68.2629 125.38 68.4449 125.38Z" fill="#FA2F56"/>
<path d="M59.41 125.38C59.585 125.38 59.729 125.517 59.729 125.699C59.729 125.883 59.585 126.018 59.41 126.018C59.228 126.018 59.083 125.883 59.083 125.699C59.083 125.517 59.228 125.38 59.41 125.38Z" fill="#FA2F56"/>
<path d="M50.368 125.38C50.55 125.38 50.702 125.517 50.702 125.699C50.702 125.883 50.55 126.018 50.368 126.018C50.201 126.018 50.049 125.883 50.049 125.699C50.049 125.517 50.201 125.38 50.368 125.38Z" fill="#FA2F56"/>
<path d="M41.333 125.38C41.523 125.38 41.667 125.517 41.667 125.699C41.667 125.883 41.523 126.018 41.333 126.018C41.151 126.018 41.014 125.883 41.014 125.699C41.014 125.517 41.151 125.38 41.333 125.38Z" fill="#FA2F56"/>
<path d="M32.306 125.38C32.488 125.38 32.625 125.517 32.625 125.699C32.625 125.883 32.488 126.018 32.306 126.018C32.116 126.018 31.972 125.883 31.972 125.699C31.972 125.517 32.116 125.38 32.306 125.38Z" fill="#FA2F56"/>
<path d="M23.271 125.38C23.446 125.38 23.59 125.517 23.59 125.699C23.59 125.883 23.446 126.018 23.271 126.018C23.089 126.018 22.937 125.883 22.937 125.699C22.937 125.517 23.089 125.38 23.271 125.38Z" fill="#FA2F56"/>
<path d="M14.229 125.38C14.411 125.38 14.556 125.517 14.556 125.699C14.556 125.883 14.411 126.018 14.229 126.018C14.054 126.018 13.91 125.883 13.91 125.699C13.91 125.517 14.054 125.38 14.229 125.38Z" fill="#FA2F56"/>
<path d="M5.19502 125.38C5.37702 125.38 5.52202 125.517 5.52202 125.699C5.52202 125.883 5.37702 126.018 5.19502 126.018C5.01302 126.018 4.86102 125.883 4.86102 125.699C4.86102 125.517 5.01302 125.38 5.19502 125.38Z" fill="#FA2F56"/>
</g>
</svg>
