<?xml version="1.0" encoding="UTF-8" standalone="no"?>
<!DOCTYPE svg PUBLIC "-//W3C//DTD SVG 1.1//EN" "http://www.w3.org/Graphics/SVG/1.1/DTD/svg11.dtd">
<svg width="100%" height="100%" viewBox="0 0 429 404" version="1.1" xmlns="http://www.w3.org/2000/svg" xmlns:xlink="http://www.w3.org/1999/xlink" xml:space="preserve" xmlns:serif="http://www.serif.com/" style="fill-rule:evenodd;clip-rule:evenodd;stroke-linejoin:round;stroke-miterlimit:2;">
    <g transform="matrix(1,0,0,1,-100.794,-7.76543)">
        <g transform="matrix(1,0,0,1,431.363,363.093)">
            <path d="M0,-345.272C20.133,-337.856 38.229,-325.665 52.329,-309.494C71.439,-287.576 84.746,-260.688 89,-231.978C95.335,-189.226 80.387,-143.162 47.985,-114.562C25.636,-94.836 -3.433,-83.913 -25.572,-63.952C-45.638,-45.86 -59.586,-20.733 -82.953,-7.17C-118.712,13.586 -169.179,-2.163 -190.885,-37.354C-212.591,-72.545 -206.317,-121.106 -180.153,-153.121C-166.349,-170.012 -147.397,-183.463 -139.214,-203.685C-127.292,-233.147 -141.927,-267.406 -133.902,-298.159C-127.144,-324.058 -104.326,-343.968 -78.617,-351.413C-52.907,-358.858 -24.911,-355.061 0,-345.272" style="fill:rgb(237,108,170);fill-rule:nonzero;"/>
        </g>
        <g transform="matrix(1,0,0,1,470.849,387.02)">
            <path d="M0,-290.159C17.579,-277.859 31.973,-261.46 41.488,-242.231C54.384,-216.167 60.402,-186.777 57.202,-157.93C52.436,-114.975 26.246,-74.239 -12.373,-54.837C-39.01,-41.455 -69.902,-38.298 -96.396,-24.635C-120.409,-12.252 -140.297,8.492 -166.349,15.655C-206.216,26.616 -251.006,-1.47 -263.03,-41.029C-275.055,-80.589 -256.617,-125.949 -223.16,-150.242C-205.508,-163.059 -183.755,-171.239 -170.691,-188.709C-151.657,-214.162 -157.081,-251.018 -141.486,-278.713C-128.353,-302.035 -101.216,-315.476 -74.458,-316.125C-47.7,-316.775 -21.596,-305.972 0,-290.159" style="fill:rgb(238,125,145);fill-rule:nonzero;"/>
        </g>
        <g transform="matrix(1,0,0,1,100.991,92.8004)">
            <path d="M0,318.962L-0.197,317.982C36.144,310.663 66.869,280.219 74.521,243.946C77.238,231.07 77.265,217.632 77.29,204.636C77.31,194.965 77.329,184.964 78.449,175.216C84.578,121.868 127.044,74.562 179.422,62.733C198.09,58.516 217.575,58.472 236.419,58.43C250.777,58.398 265.625,58.363 280.029,56.487C313.103,52.181 348.979,33.044 354.574,0L355.561,0.166C349.88,33.715 313.597,53.125 280.158,57.48C265.691,59.363 250.812,59.397 236.421,59.43C217.632,59.472 198.203,59.516 179.643,63.707C127.665,75.446 85.525,122.391 79.443,175.329C78.329,185.023 78.31,194.994 78.29,204.638C78.265,217.685 78.237,231.176 75.5,244.153C67.768,280.805 36.721,311.566 0,318.962" style="fill:rgb(250,47,86);fill-rule:nonzero;"/>
        </g>
        <g transform="matrix(1,0,0,1,196.462,235.509)">
            <path d="M0,-5.913C-1.76,-6.338 -4.67,-4.605 -6.113,-3.605C-6.354,-5.344 -7.05,-8.66 -8.554,-9.667C-11.086,-11.363 -12.887,-9.03 -13.42,-6.485C-14.242,-2.561 -10.078,5.45 -10.078,5.45C-10.078,5.45 -1.377,3.084 0.953,-0.178C2.466,-2.292 2.962,-5.199 0,-5.913" style="fill:rgb(250,47,86);fill-rule:nonzero;"/>
        </g>
    </g>
</svg>
