<?xml version="1.0" encoding="UTF-8" standalone="no"?>
<!DOCTYPE svg PUBLIC "-//W3C//DTD SVG 1.1//EN" "http://www.w3.org/Graphics/SVG/1.1/DTD/svg11.dtd">
<svg width="100%" height="100%" viewBox="0 0 555 390" version="1.1" xmlns="http://www.w3.org/2000/svg" xmlns:xlink="http://www.w3.org/1999/xlink" xml:space="preserve" xmlns:serif="http://www.serif.com/" style="fill-rule:evenodd;clip-rule:evenodd;stroke-linejoin:round;stroke-miterlimit:2;">
    <g transform="matrix(1,0,0,1,-20.3051,-1.33227e-15)">
        <g transform="matrix(-0.702713,0,0,0.702713,481.283,2.05052)">
            <path d="M0.015,-2.918C0.813,-2.918 1.459,-2.264 1.459,-1.46C1.459,-0.669 0.813,0 0.015,0C-0.798,0 -1.444,-0.669 -1.444,-1.46C-1.444,-2.264 -0.798,-2.918 0.015,-2.918" style="fill:rgb(250,47,86);fill-rule:nonzero;"/>
        </g>
        <g transform="matrix(-0.702713,0,0,0.702713,487.632,2.05052)">
            <path d="M0.015,-2.918C0.813,-2.918 1.459,-2.264 1.459,-1.46C1.459,-0.669 0.813,0 0.015,0C-0.79,0 -1.444,-0.669 -1.444,-1.46C-1.444,-2.264 -0.79,-2.918 0.015,-2.918" style="fill:rgb(250,47,86);fill-rule:nonzero;"/>
        </g>
        <g transform="matrix(-0.702713,0,0,0.702713,493.965,2.05052)">
            <path d="M-0.015,-2.918C0.79,-2.918 1.444,-2.264 1.444,-1.46C1.444,-0.669 0.79,0 -0.015,0C-0.813,0 -1.459,-0.669 -1.459,-1.46C-1.459,-2.264 -0.813,-2.918 -0.015,-2.918" style="fill:rgb(250,47,86);fill-rule:nonzero;"/>
        </g>
        <g transform="matrix(-0.702713,0,0,0.702713,500.324,2.05052)">
            <path d="M0,-2.918C0.798,-2.918 1.459,-2.264 1.459,-1.46C1.459,-0.669 0.798,0 0,0C-0.806,0 -1.459,-0.669 -1.459,-1.46C-1.459,-2.264 -0.806,-2.918 0,-2.918" style="fill:rgb(250,47,86);fill-rule:nonzero;"/>
        </g>
        <g transform="matrix(-0.702713,0,0,0.702713,506.678,2.05052)">
            <path d="M0.008,-2.918C0.806,-2.918 1.459,-2.264 1.459,-1.46C1.459,-0.669 0.806,0 0.008,0C-0.798,0 -1.451,-0.669 -1.451,-1.46C-1.451,-2.264 -0.798,-2.918 0.008,-2.918" style="fill:rgb(250,47,86);fill-rule:nonzero;"/>
        </g>
        <g transform="matrix(-0.702713,0,0,0.702713,513.016,2.05052)">
            <path d="M-0.015,-2.918C0.798,-2.918 1.444,-2.264 1.444,-1.46C1.444,-0.669 0.798,0 -0.015,0C-0.813,0 -1.459,-0.669 -1.459,-1.46C-1.459,-2.264 -0.813,-2.918 -0.015,-2.918" style="fill:rgb(250,47,86);fill-rule:nonzero;"/>
        </g>
        <g transform="matrix(-0.702713,0,0,0.702713,519.376,2.05052)">
            <path d="M0,-2.918C0.813,-2.918 1.459,-2.264 1.459,-1.46C1.459,-0.669 0.813,0 0,0C-0.79,0 -1.459,-0.669 -1.459,-1.46C-1.459,-2.264 -0.79,-2.918 0,-2.918" style="fill:rgb(250,47,86);fill-rule:nonzero;"/>
        </g>
        <g transform="matrix(-0.702713,0,0,0.702713,525.73,2.05052)">
            <path d="M0.015,-2.918C0.813,-2.918 1.459,-2.264 1.459,-1.46C1.459,-0.669 0.813,0 0.015,0C-0.798,0 -1.444,-0.669 -1.444,-1.46C-1.444,-2.264 -0.798,-2.918 0.015,-2.918" style="fill:rgb(250,47,86);fill-rule:nonzero;"/>
        </g>
        <g transform="matrix(-0.702713,0,0,0.702713,532.078,2.05052)">
            <path d="M0.015,-2.918C0.813,-2.918 1.459,-2.264 1.459,-1.46C1.459,-0.669 0.813,0 0.015,0C-0.798,0 -1.444,-0.669 -1.444,-1.46C-1.444,-2.264 -0.798,-2.918 0.015,-2.918" style="fill:rgb(250,47,86);fill-rule:nonzero;"/>
        </g>
        <g transform="matrix(-0.702713,0,0,0.702713,538.416,2.05052)">
            <path d="M-0.008,-2.918C0.797,-2.918 1.451,-2.264 1.451,-1.46C1.451,-0.669 0.797,0 -0.008,0C-0.806,0 -1.459,-0.669 -1.459,-1.46C-1.459,-2.264 -0.806,-2.918 -0.008,-2.918" style="fill:rgb(250,47,86);fill-rule:nonzero;"/>
        </g>
        <g transform="matrix(-0.702713,0,0,0.702713,544.771,2.05052)">
            <path d="M0,-2.918C0.805,-2.918 1.459,-2.264 1.459,-1.46C1.459,-0.669 0.805,0 0,0C-0.813,0 -1.459,-0.669 -1.459,-1.46C-1.459,-2.264 -0.813,-2.918 0,-2.918" style="fill:rgb(250,47,86);fill-rule:nonzero;"/>
        </g>
        <g transform="matrix(-0.702713,0,0,0.702713,551.125,2.05052)">
            <path d="M0.008,-2.918C0.806,-2.918 1.459,-2.264 1.459,-1.46C1.459,-0.669 0.806,0 0.008,0C-0.797,0 -1.451,-0.669 -1.451,-1.46C-1.451,-2.264 -0.797,-2.918 0.008,-2.918" style="fill:rgb(250,47,86);fill-rule:nonzero;"/>
        </g>
        <g transform="matrix(-0.702713,0,0,0.702713,557.463,2.05052)">
            <path d="M-0.015,-2.918C0.79,-2.918 1.444,-2.264 1.444,-1.46C1.444,-0.669 0.79,0 -0.015,0C-0.813,0 -1.459,-0.669 -1.459,-1.46C-1.459,-2.264 -0.813,-2.918 -0.015,-2.918" style="fill:rgb(250,47,86);fill-rule:nonzero;"/>
        </g>
        <g transform="matrix(-0.702713,0,0,0.702713,563.812,2.05052)">
            <path d="M-0.015,-2.918C0.798,-2.918 1.444,-2.264 1.444,-1.46C1.444,-0.669 0.798,0 -0.015,0C-0.813,0 -1.459,-0.669 -1.459,-1.46C-1.459,-2.264 -0.813,-2.918 -0.015,-2.918" style="fill:rgb(250,47,86);fill-rule:nonzero;"/>
        </g>
        <g transform="matrix(-0.702713,0,0,0.702713,481.283,8.29827)">
            <path d="M0.016,-2.615C0.738,-2.615 1.315,-2.038 1.315,-1.323C1.315,-0.594 0.738,0 0.016,0C-0.706,0 -1.299,-0.594 -1.299,-1.323C-1.299,-2.038 -0.706,-2.615 0.016,-2.615" style="fill:rgb(250,47,86);fill-rule:nonzero;"/>
        </g>
        <g transform="matrix(-0.702713,0,0,0.702713,487.627,8.29827)">
            <path d="M0.008,-2.615C0.722,-2.615 1.307,-2.038 1.307,-1.323C1.307,-0.594 0.722,0 0.008,0C-0.714,0 -1.299,-0.594 -1.299,-1.323C-1.299,-2.038 -0.714,-2.615 0.008,-2.615" style="fill:rgb(250,47,86);fill-rule:nonzero;"/>
        </g>
        <g transform="matrix(-0.702713,0,0,0.702713,493.969,8.29827)">
            <path d="M-0.008,-2.615C0.714,-2.615 1.299,-2.038 1.299,-1.323C1.299,-0.594 0.714,0 -0.008,0C-0.722,0 -1.307,-0.594 -1.307,-1.323C-1.307,-2.038 -0.722,-2.615 -0.008,-2.615" style="fill:rgb(250,47,86);fill-rule:nonzero;"/>
        </g>
        <g transform="matrix(-0.702713,0,0,0.702713,500.324,8.29827)">
            <path d="M0,-2.615C0.722,-2.615 1.299,-2.038 1.299,-1.323C1.299,-0.594 0.722,0 0,0C-0.722,0 -1.299,-0.594 -1.299,-1.323C-1.299,-2.038 -0.722,-2.615 0,-2.615" style="fill:rgb(250,47,86);fill-rule:nonzero;"/>
        </g>
        <g transform="matrix(-0.702713,0,0,0.702713,506.678,8.29827)">
            <path d="M0.008,-2.615C0.722,-2.615 1.307,-2.038 1.307,-1.323C1.307,-0.594 0.722,0 0.008,0C-0.714,0 -1.299,-0.594 -1.299,-1.323C-1.299,-2.038 -0.714,-2.615 0.008,-2.615" style="fill:rgb(250,47,86);fill-rule:nonzero;"/>
        </g>
        <g transform="matrix(-0.702713,0,0,0.702713,513.016,8.29827)">
            <path d="M-0.016,-2.615C0.706,-2.615 1.299,-2.038 1.299,-1.323C1.299,-0.594 0.706,0 -0.016,0C-0.723,0 -1.315,-0.594 -1.315,-1.323C-1.315,-2.038 -0.723,-2.615 -0.016,-2.615" style="fill:rgb(250,47,86);fill-rule:nonzero;"/>
        </g>
        <g transform="matrix(-0.702713,0,0,0.702713,519.376,8.29827)">
            <path d="M0,-2.615C0.729,-2.615 1.299,-2.038 1.299,-1.323C1.299,-0.594 0.729,0 0,0C-0.722,0 -1.299,-0.594 -1.299,-1.323C-1.299,-2.038 -0.722,-2.615 0,-2.615" style="fill:rgb(250,47,86);fill-rule:nonzero;"/>
        </g>
        <g transform="matrix(-0.702713,0,0,0.702713,525.73,8.29827)">
            <path d="M0.016,-2.615C0.738,-2.615 1.315,-2.038 1.315,-1.323C1.315,-0.594 0.738,0 0.016,0C-0.706,0 -1.299,-0.594 -1.299,-1.323C-1.299,-2.038 -0.706,-2.615 0.016,-2.615" style="fill:rgb(250,47,86);fill-rule:nonzero;"/>
        </g>
        <g transform="matrix(-0.702713,0,0,0.702713,532.079,8.29827)">
            <path d="M0.016,-2.615C0.723,-2.615 1.315,-2.038 1.315,-1.323C1.315,-0.594 0.723,0 0.016,0C-0.706,0 -1.299,-0.594 -1.299,-1.323C-1.299,-2.038 -0.706,-2.615 0.016,-2.615" style="fill:rgb(250,47,86);fill-rule:nonzero;"/>
        </g>
        <g transform="matrix(-0.702713,0,0,0.702713,538.416,8.29827)">
            <path d="M-0.008,-2.615C0.714,-2.615 1.299,-2.038 1.299,-1.323C1.299,-0.594 0.714,0 -0.008,0C-0.722,0 -1.307,-0.594 -1.307,-1.323C-1.307,-2.038 -0.722,-2.615 -0.008,-2.615" style="fill:rgb(250,47,86);fill-rule:nonzero;"/>
        </g>
        <g transform="matrix(-0.702713,0,0,0.702713,544.771,8.29827)">
            <path d="M0,-2.615C0.722,-2.615 1.299,-2.038 1.299,-1.323C1.299,-0.594 0.722,0 0,0C-0.722,0 -1.299,-0.594 -1.299,-1.323C-1.299,-2.038 -0.722,-2.615 0,-2.615" style="fill:rgb(250,47,86);fill-rule:nonzero;"/>
        </g>
        <g transform="matrix(-0.702713,0,0,0.702713,551.125,8.29827)">
            <path d="M0.008,-2.615C0.722,-2.615 1.307,-2.038 1.307,-1.323C1.307,-0.594 0.722,0 0.008,0C-0.714,0 -1.299,-0.594 -1.299,-1.323C-1.299,-2.038 -0.714,-2.615 0.008,-2.615" style="fill:rgb(250,47,86);fill-rule:nonzero;"/>
        </g>
        <g transform="matrix(-0.702713,0,0,0.702713,557.468,8.29827)">
            <path d="M-0.008,-2.615C0.714,-2.615 1.299,-2.038 1.299,-1.323C1.299,-0.594 0.714,0 -0.008,0C-0.722,0 -1.307,-0.594 -1.307,-1.323C-1.307,-2.038 -0.722,-2.615 -0.008,-2.615" style="fill:rgb(250,47,86);fill-rule:nonzero;"/>
        </g>
        <g transform="matrix(-0.702713,0,0,0.702713,563.822,8.29827)">
            <path d="M0,-2.615C0.722,-2.615 1.299,-2.038 1.299,-1.323C1.299,-0.594 0.722,0 0,0C-0.722,0 -1.299,-0.594 -1.299,-1.323C-1.299,-2.038 -0.722,-2.615 0,-2.615" style="fill:rgb(250,47,86);fill-rule:nonzero;"/>
        </g>
        <g transform="matrix(-0.702713,0,0,0.702713,481.272,14.5551)">
            <path d="M0,-2.37C0.646,-2.37 1.178,-1.838 1.178,-1.184C1.178,-0.532 0.646,0 0,0C-0.653,0 -1.178,-0.532 -1.178,-1.184C-1.178,-1.838 -0.653,-2.37 0,-2.37" style="fill:rgb(250,47,86);fill-rule:nonzero;"/>
        </g>
        <g transform="matrix(-0.702713,0,0,0.702713,487.626,14.5551)">
            <path d="M0.007,-2.37C0.661,-2.37 1.185,-1.838 1.185,-1.184C1.185,-0.532 0.661,0 0.007,0C-0.654,0 -1.178,-0.532 -1.178,-1.184C-1.178,-1.838 -0.654,-2.37 0.007,-2.37" style="fill:rgb(250,47,86);fill-rule:nonzero;"/>
        </g>
        <g transform="matrix(-0.702713,0,0,0.702713,493.975,14.5551)">
            <path d="M0,-2.37C0.646,-2.37 1.178,-1.838 1.178,-1.184C1.178,-0.532 0.646,0 0,0C-0.654,0 -1.178,-0.532 -1.178,-1.184C-1.178,-1.838 -0.654,-2.37 0,-2.37" style="fill:rgb(250,47,86);fill-rule:nonzero;"/>
        </g>
        <g transform="matrix(-0.702713,0,0,0.702713,500.324,14.5551)">
            <path d="M0,-2.37C0.653,-2.37 1.178,-1.838 1.178,-1.184C1.178,-0.532 0.653,0 0,0C-0.646,0 -1.178,-0.532 -1.178,-1.184C-1.178,-1.838 -0.646,-2.37 0,-2.37" style="fill:rgb(250,47,86);fill-rule:nonzero;"/>
        </g>
        <g transform="matrix(-0.702713,0,0,0.702713,506.667,14.5551)">
            <path d="M-0.008,-2.37C0.645,-2.37 1.17,-1.838 1.17,-1.184C1.17,-0.532 0.645,0 -0.008,0C-0.654,0 -1.178,-0.532 -1.178,-1.184C-1.178,-1.838 -0.654,-2.37 -0.008,-2.37" style="fill:rgb(250,47,86);fill-rule:nonzero;"/>
        </g>
        <g transform="matrix(-0.702713,0,0,0.702713,513.016,14.5551)">
            <path d="M-0.015,-2.37C0.638,-2.37 1.178,-1.838 1.178,-1.184C1.178,-0.532 0.638,0 -0.015,0C-0.661,0 -1.193,-0.532 -1.193,-1.184C-1.193,-1.838 -0.661,-2.37 -0.015,-2.37" style="fill:rgb(250,47,86);fill-rule:nonzero;"/>
        </g>
        <g transform="matrix(-0.702713,0,0,0.702713,519.37,14.5551)">
            <path d="M-0.008,-2.37C0.646,-2.37 1.17,-1.838 1.17,-1.184C1.17,-0.532 0.646,0 -0.008,0C-0.654,0 -1.178,-0.532 -1.178,-1.184C-1.178,-1.838 -0.654,-2.37 -0.008,-2.37" style="fill:rgb(250,47,86);fill-rule:nonzero;"/>
        </g>
        <g transform="matrix(-0.702713,0,0,0.702713,525.719,14.5551)">
            <path d="M0,-2.37C0.646,-2.37 1.178,-1.838 1.178,-1.184C1.178,-0.532 0.646,0 0,0C-0.654,0 -1.178,-0.532 -1.178,-1.184C-1.178,-1.838 -0.654,-2.37 0,-2.37" style="fill:rgb(250,47,86);fill-rule:nonzero;"/>
        </g>
        <g transform="matrix(-0.702713,0,0,0.702713,532.078,14.5551)">
            <path d="M0.015,-2.37C0.661,-2.37 1.193,-1.838 1.193,-1.184C1.193,-0.532 0.661,0 0.015,0C-0.646,0 -1.178,-0.532 -1.178,-1.184C-1.178,-1.838 -0.646,-2.37 0.015,-2.37" style="fill:rgb(250,47,86);fill-rule:nonzero;"/>
        </g>
        <g transform="matrix(-0.702713,0,0,0.702713,538.428,14.5551)">
            <path d="M0.008,-2.37C0.654,-2.37 1.178,-1.838 1.178,-1.184C1.178,-0.532 0.654,0 0.008,0C-0.646,0 -1.17,-0.532 -1.17,-1.184C-1.17,-1.838 -0.646,-2.37 0.008,-2.37" style="fill:rgb(250,47,86);fill-rule:nonzero;"/>
        </g>
        <g transform="matrix(-0.702713,0,0,0.702713,544.771,14.5551)">
            <path d="M0,-2.37C0.646,-2.37 1.178,-1.838 1.178,-1.184C1.178,-0.532 0.646,0 0,0C-0.653,0 -1.178,-0.532 -1.178,-1.184C-1.178,-1.838 -0.653,-2.37 0,-2.37" style="fill:rgb(250,47,86);fill-rule:nonzero;"/>
        </g>
        <g transform="matrix(-0.702713,0,0,0.702713,551.12,14.5551)">
            <path d="M0,-2.37C0.654,-2.37 1.178,-1.838 1.178,-1.184C1.178,-0.532 0.654,0 0,0C-0.646,0 -1.178,-0.532 -1.178,-1.184C-1.178,-1.838 -0.646,-2.37 0,-2.37" style="fill:rgb(250,47,86);fill-rule:nonzero;"/>
        </g>
        <g transform="matrix(-0.702713,0,0,0.702713,557.469,14.5551)">
            <path d="M-0.007,-2.37C0.654,-2.37 1.178,-1.838 1.178,-1.184C1.178,-0.532 0.654,0 -0.007,0C-0.66,0 -1.185,-0.532 -1.185,-1.184C-1.185,-1.838 -0.66,-2.37 -0.007,-2.37" style="fill:rgb(250,47,86);fill-rule:nonzero;"/>
        </g>
        <g transform="matrix(-0.702713,0,0,0.702713,563.822,14.5551)">
            <path d="M0,-2.37C0.653,-2.37 1.178,-1.838 1.178,-1.184C1.178,-0.532 0.653,0 0,0C-0.646,0 -1.178,-0.532 -1.178,-1.184C-1.178,-1.838 -0.646,-2.37 0,-2.37" style="fill:rgb(250,47,86);fill-rule:nonzero;"/>
        </g>
        <g transform="matrix(-0.702713,0,0,0.702713,481.278,20.8029)">
            <path d="M0.008,-2.067C0.57,-2.067 1.034,-1.611 1.034,-1.034C1.034,-0.472 0.57,0 0.008,0C-0.57,0 -1.026,-0.472 -1.026,-1.034C-1.026,-1.611 -0.57,-2.067 0.008,-2.067" style="fill:rgb(250,47,86);fill-rule:nonzero;"/>
        </g>
        <g transform="matrix(-0.702713,0,0,0.702713,487.627,20.8029)">
            <path d="M0.008,-2.067C0.57,-2.067 1.026,-1.611 1.026,-1.034C1.026,-0.472 0.57,0 0.008,0C-0.57,0 -1.018,-0.472 -1.018,-1.034C-1.018,-1.611 -0.57,-2.067 0.008,-2.067" style="fill:rgb(250,47,86);fill-rule:nonzero;"/>
        </g>
        <g transform="matrix(-0.702713,0,0,0.702713,493.981,20.8029)">
            <path d="M0.008,-2.067C0.585,-2.067 1.034,-1.611 1.034,-1.034C1.034,-0.472 0.585,0 0.008,0C-0.554,0 -1.026,-0.472 -1.026,-1.034C-1.026,-1.611 -0.554,-2.067 0.008,-2.067" style="fill:rgb(250,47,86);fill-rule:nonzero;"/>
        </g>
        <g transform="matrix(-0.702713,0,0,0.702713,500.319,20.8029)">
            <path d="M-0.007,-2.067C0.555,-2.067 1.026,-1.611 1.026,-1.034C1.026,-0.472 0.555,0 -0.007,0C-0.569,0 -1.033,-0.472 -1.033,-1.034C-1.033,-1.611 -0.569,-2.067 -0.007,-2.067" style="fill:rgb(250,47,86);fill-rule:nonzero;"/>
        </g>
        <g transform="matrix(-0.702713,0,0,0.702713,506.668,20.8029)">
            <path d="M-0.007,-2.067C0.563,-2.067 1.026,-1.611 1.026,-1.034C1.026,-0.472 0.563,0 -0.007,0C-0.577,0 -1.033,-0.472 -1.033,-1.034C-1.033,-1.611 -0.577,-2.067 -0.007,-2.067" style="fill:rgb(250,47,86);fill-rule:nonzero;"/>
        </g>
        <g transform="matrix(-0.702713,0,0,0.702713,513.016,20.8029)">
            <path d="M-0.015,-2.067C0.562,-2.067 1.018,-1.611 1.018,-1.034C1.018,-0.472 0.562,0 -0.015,0C-0.577,0 -1.033,-0.472 -1.033,-1.034C-1.033,-1.611 -0.577,-2.067 -0.015,-2.067" style="fill:rgb(250,47,86);fill-rule:nonzero;"/>
        </g>
        <g transform="matrix(-0.702713,0,0,0.702713,519.371,20.8029)">
            <path d="M-0.007,-2.067C0.563,-2.067 1.026,-1.611 1.026,-1.034C1.026,-0.472 0.563,0 -0.007,0C-0.569,0 -1.033,-0.472 -1.033,-1.034C-1.033,-1.611 -0.569,-2.067 -0.007,-2.067" style="fill:rgb(250,47,86);fill-rule:nonzero;"/>
        </g>
        <g transform="matrix(-0.702713,0,0,0.702713,525.724,20.8029)">
            <path d="M0.007,-2.067C0.569,-2.067 1.033,-1.611 1.033,-1.034C1.033,-0.472 0.569,0 0.007,0C-0.563,0 -1.026,-0.472 -1.026,-1.034C-1.026,-1.611 -0.563,-2.067 0.007,-2.067" style="fill:rgb(250,47,86);fill-rule:nonzero;"/>
        </g>
        <g transform="matrix(-0.702713,0,0,0.702713,532.078,20.8029)">
            <path d="M0.015,-2.067C0.577,-2.067 1.033,-1.611 1.033,-1.034C1.033,-0.472 0.577,0 0.015,0C-0.562,0 -1.018,-0.472 -1.018,-1.034C-1.018,-1.611 -0.562,-2.067 0.015,-2.067" style="fill:rgb(250,47,86);fill-rule:nonzero;"/>
        </g>
        <g transform="matrix(-0.702713,0,0,0.702713,538.427,20.8029)">
            <path d="M0.007,-2.067C0.577,-2.067 1.033,-1.611 1.033,-1.034C1.033,-0.472 0.577,0 0.007,0C-0.563,0 -1.026,-0.472 -1.026,-1.034C-1.026,-1.611 -0.563,-2.067 0.007,-2.067" style="fill:rgb(250,47,86);fill-rule:nonzero;"/>
        </g>
        <g transform="matrix(-0.702713,0,0,0.702713,544.776,20.8029)">
            <path d="M0.007,-2.067C0.569,-2.067 1.033,-1.611 1.033,-1.034C1.033,-0.472 0.569,0 0.007,0C-0.555,0 -1.026,-0.472 -1.026,-1.034C-1.026,-1.611 -0.555,-2.067 0.007,-2.067" style="fill:rgb(250,47,86);fill-rule:nonzero;"/>
        </g>
        <g transform="matrix(-0.702713,0,0,0.702713,551.115,20.8029)">
            <path d="M-0.007,-2.067C0.555,-2.067 1.026,-1.611 1.026,-1.034C1.026,-0.472 0.555,0 -0.007,0C-0.585,0 -1.033,-0.472 -1.033,-1.034C-1.033,-1.611 -0.585,-2.067 -0.007,-2.067" style="fill:rgb(250,47,86);fill-rule:nonzero;"/>
        </g>
        <g transform="matrix(-0.702713,0,0,0.702713,557.468,20.8029)">
            <path d="M-0.008,-2.067C0.569,-2.067 1.018,-1.611 1.018,-1.034C1.018,-0.472 0.569,0 -0.008,0C-0.57,0 -1.026,-0.472 -1.026,-1.034C-1.026,-1.611 -0.57,-2.067 -0.008,-2.067" style="fill:rgb(250,47,86);fill-rule:nonzero;"/>
        </g>
        <g transform="matrix(-0.702713,0,0,0.702713,563.817,20.8029)">
            <path d="M-0.007,-2.067C0.555,-2.067 1.026,-1.611 1.026,-1.034C1.026,-0.472 0.555,0 -0.007,0C-0.569,0 -1.033,-0.472 -1.033,-1.034C-1.033,-1.611 -0.569,-2.067 -0.007,-2.067" style="fill:rgb(250,47,86);fill-rule:nonzero;"/>
        </g>
        <g transform="matrix(-0.702713,0,0,0.702713,481.277,27.0608)">
            <path d="M0.007,-1.808C0.493,-1.808 0.904,-1.413 0.904,-0.912C0.904,-0.41 0.493,0 0.007,0C-0.495,0 -0.897,-0.41 -0.897,-0.912C-0.897,-1.413 -0.495,-1.808 0.007,-1.808" style="fill:rgb(250,47,86);fill-rule:nonzero;"/>
        </g>
        <g transform="matrix(-0.702713,0,0,0.702713,487.626,27.0608)">
            <path d="M0.007,-1.808C0.501,-1.808 0.904,-1.413 0.904,-0.912C0.904,-0.41 0.501,0 0.007,0C-0.494,0 -0.897,-0.41 -0.897,-0.912C-0.897,-1.413 -0.494,-1.808 0.007,-1.808" style="fill:rgb(250,47,86);fill-rule:nonzero;"/>
        </g>
        <g transform="matrix(-0.702713,0,0,0.702713,493.97,27.0608)">
            <path d="M-0.007,-1.808C0.494,-1.808 0.897,-1.413 0.897,-0.912C0.897,-0.41 0.494,0 -0.007,0C-0.501,0 -0.904,-0.41 -0.904,-0.912C-0.904,-1.413 -0.501,-1.808 -0.007,-1.808" style="fill:rgb(250,47,86);fill-rule:nonzero;"/>
        </g>
        <g transform="matrix(-0.702713,0,0,0.702713,500.324,27.0608)">
            <path d="M0,-1.808C0.501,-1.808 0.904,-1.413 0.904,-0.912C0.904,-0.41 0.501,0 0,0C-0.501,0 -0.904,-0.41 -0.904,-0.912C-0.904,-1.413 -0.501,-1.808 0,-1.808" style="fill:rgb(250,47,86);fill-rule:nonzero;"/>
        </g>
        <g transform="matrix(-0.702713,0,0,0.702713,506.678,27.0608)">
            <path d="M0.008,-1.808C0.502,-1.808 0.904,-1.413 0.904,-0.912C0.904,-0.41 0.502,0 0.008,0C-0.494,0 -0.896,-0.41 -0.896,-0.912C-0.896,-1.413 -0.494,-1.808 0.008,-1.808" style="fill:rgb(250,47,86);fill-rule:nonzero;"/>
        </g>
        <g transform="matrix(-0.702713,0,0,0.702713,513.022,27.0608)">
            <path d="M-0.007,-1.808C0.494,-1.808 0.897,-1.413 0.897,-0.912C0.897,-0.41 0.494,0 -0.007,0C-0.493,0 -0.904,-0.41 -0.904,-0.912C-0.904,-1.413 -0.493,-1.808 -0.007,-1.808" style="fill:rgb(250,47,86);fill-rule:nonzero;"/>
        </g>
        <g transform="matrix(-0.702713,0,0,0.702713,519.37,27.0608)">
            <path d="M-0.008,-1.808C0.501,-1.808 0.904,-1.413 0.904,-0.912C0.904,-0.41 0.501,0 -0.008,0C-0.509,0 -0.912,-0.41 -0.912,-0.912C-0.912,-1.413 -0.509,-1.808 -0.008,-1.808" style="fill:rgb(250,47,86);fill-rule:nonzero;"/>
        </g>
        <g transform="matrix(-0.702713,0,0,0.702713,525.735,27.0608)">
            <path d="M0.023,-1.808C0.509,-1.808 0.912,-1.413 0.912,-0.912C0.912,-0.41 0.509,0 0.023,0C-0.478,0 -0.889,-0.41 -0.889,-0.912C-0.889,-1.413 -0.478,-1.808 0.023,-1.808" style="fill:rgb(250,47,86);fill-rule:nonzero;"/>
        </g>
        <g transform="matrix(-0.702713,0,0,0.702713,532.073,27.0608)">
            <path d="M0.007,-1.808C0.493,-1.808 0.904,-1.413 0.904,-0.912C0.904,-0.41 0.493,0 0.007,0C-0.494,0 -0.897,-0.41 -0.897,-0.912C-0.897,-1.413 -0.494,-1.808 0.007,-1.808" style="fill:rgb(250,47,86);fill-rule:nonzero;"/>
        </g>
        <g transform="matrix(-0.702713,0,0,0.702713,538.417,27.0608)">
            <path d="M-0.007,-1.808C0.494,-1.808 0.897,-1.413 0.897,-0.912C0.897,-0.41 0.494,0 -0.007,0C-0.501,0 -0.904,-0.41 -0.904,-0.912C-0.904,-1.413 -0.501,-1.808 -0.007,-1.808" style="fill:rgb(250,47,86);fill-rule:nonzero;"/>
        </g>
        <g transform="matrix(-0.702713,0,0,0.702713,544.771,27.0608)">
            <path d="M0,-1.808C0.502,-1.808 0.904,-1.413 0.904,-0.912C0.904,-0.41 0.502,0 0,0C-0.501,0 -0.904,-0.41 -0.904,-0.912C-0.904,-1.413 -0.501,-1.808 0,-1.808" style="fill:rgb(250,47,86);fill-rule:nonzero;"/>
        </g>
        <g transform="matrix(-0.702713,0,0,0.702713,551.124,27.0608)">
            <path d="M0.007,-1.808C0.501,-1.808 0.904,-1.413 0.904,-0.912C0.904,-0.41 0.501,0 0.007,0C-0.494,0 -0.897,-0.41 -0.897,-0.912C-0.897,-1.413 -0.494,-1.808 0.007,-1.808" style="fill:rgb(250,47,86);fill-rule:nonzero;"/>
        </g>
        <g transform="matrix(-0.702713,0,0,0.702713,557.469,27.0608)">
            <path d="M-0.007,-1.808C0.494,-1.808 0.897,-1.413 0.897,-0.912C0.897,-0.41 0.494,0 -0.007,0C-0.501,0 -0.904,-0.41 -0.904,-0.912C-0.904,-1.413 -0.501,-1.808 -0.007,-1.808" style="fill:rgb(250,47,86);fill-rule:nonzero;"/>
        </g>
        <g transform="matrix(-0.702713,0,0,0.702713,563.812,27.0608)">
            <path d="M-0.015,-1.808C0.487,-1.808 0.897,-1.413 0.897,-0.912C0.897,-0.41 0.487,0 -0.015,0C-0.516,0 -0.912,-0.41 -0.912,-0.912C-0.912,-1.413 -0.516,-1.808 -0.015,-1.808" style="fill:rgb(250,47,86);fill-rule:nonzero;"/>
        </g>
        <g transform="matrix(-0.702713,0,0,0.702713,481.283,33.3086)">
            <path d="M0.015,-1.505C0.433,-1.505 0.76,-1.186 0.76,-0.761C0.76,-0.35 0.433,0 0.015,0C-0.403,0 -0.745,-0.35 -0.745,-0.761C-0.745,-1.186 -0.403,-1.505 0.015,-1.505" style="fill:rgb(250,47,86);fill-rule:nonzero;"/>
        </g>
        <g transform="matrix(-0.702713,0,0,0.702713,487.627,33.3086)">
            <path d="M0.008,-1.505C0.411,-1.505 0.76,-1.186 0.76,-0.761C0.76,-0.35 0.411,0 0.008,0C-0.41,0 -0.752,-0.35 -0.752,-0.761C-0.752,-1.186 -0.41,-1.505 0.008,-1.505" style="fill:rgb(250,47,86);fill-rule:nonzero;"/>
        </g>
        <g transform="matrix(-0.702713,0,0,0.702713,493.969,33.3086)">
            <path d="M-0.008,-1.505C0.41,-1.505 0.752,-1.186 0.752,-0.761C0.752,-0.35 0.41,0 -0.008,0C-0.426,0 -0.76,-0.35 -0.76,-0.761C-0.76,-1.186 -0.426,-1.505 -0.008,-1.505" style="fill:rgb(250,47,86);fill-rule:nonzero;"/>
        </g>
        <g transform="matrix(-0.702713,0,0,0.702713,500.319,33.3086)">
            <path d="M-0.007,-1.505C0.411,-1.505 0.745,-1.186 0.745,-0.761C0.745,-0.35 0.411,0 -0.007,0C-0.425,0 -0.752,-0.35 -0.752,-0.761C-0.752,-1.186 -0.425,-1.505 -0.007,-1.505" style="fill:rgb(250,47,86);fill-rule:nonzero;"/>
        </g>
        <g transform="matrix(-0.702713,0,0,0.702713,506.678,33.3086)">
            <path d="M0.008,-1.505C0.426,-1.505 0.76,-1.186 0.76,-0.761C0.76,-0.35 0.426,0 0.008,0C-0.402,0 -0.752,-0.35 -0.752,-0.761C-0.752,-1.186 -0.402,-1.505 0.008,-1.505" style="fill:rgb(250,47,86);fill-rule:nonzero;"/>
        </g>
        <g transform="matrix(-0.702713,0,0,0.702713,513.016,33.3086)">
            <path d="M-0.015,-1.505C0.403,-1.505 0.745,-1.186 0.745,-0.761C0.745,-0.35 0.403,0 -0.015,0C-0.418,0 -0.76,-0.35 -0.76,-0.761C-0.76,-1.186 -0.418,-1.505 -0.015,-1.505" style="fill:rgb(250,47,86);fill-rule:nonzero;"/>
        </g>
        <g transform="matrix(-0.702713,0,0,0.702713,519.371,33.3086)">
            <path d="M-0.007,-1.505C0.411,-1.505 0.745,-1.186 0.745,-0.761C0.745,-0.35 0.411,0 -0.007,0C-0.417,0 -0.752,-0.35 -0.752,-0.761C-0.752,-1.186 -0.417,-1.505 -0.007,-1.505" style="fill:rgb(250,47,86);fill-rule:nonzero;"/>
        </g>
        <g transform="matrix(-0.702713,0,0,0.702713,525.73,33.3086)">
            <path d="M0.015,-1.505C0.433,-1.505 0.76,-1.186 0.76,-0.761C0.76,-0.35 0.433,0 0.015,0C-0.403,0 -0.745,-0.35 -0.745,-0.761C-0.745,-1.186 -0.403,-1.505 0.015,-1.505" style="fill:rgb(250,47,86);fill-rule:nonzero;"/>
        </g>
        <g transform="matrix(-0.702713,0,0,0.702713,532.078,33.3086)">
            <path d="M0.015,-1.505C0.418,-1.505 0.76,-1.186 0.76,-0.761C0.76,-0.35 0.418,0 0.015,0C-0.403,0 -0.745,-0.35 -0.745,-0.761C-0.745,-1.186 -0.403,-1.505 0.015,-1.505" style="fill:rgb(250,47,86);fill-rule:nonzero;"/>
        </g>
        <g transform="matrix(-0.702713,0,0,0.702713,538.416,33.3086)">
            <path d="M-0.008,-1.505C0.402,-1.505 0.752,-1.186 0.752,-0.761C0.752,-0.35 0.402,0 -0.008,0C-0.426,0 -0.76,-0.35 -0.76,-0.761C-0.76,-1.186 -0.426,-1.505 -0.008,-1.505" style="fill:rgb(250,47,86);fill-rule:nonzero;"/>
        </g>
        <g transform="matrix(-0.702713,0,0,0.702713,544.771,33.3086)">
            <path d="M0,-1.505C0.418,-1.505 0.745,-1.186 0.745,-0.761C0.745,-0.35 0.418,0 0,0C-0.418,0 -0.745,-0.35 -0.745,-0.761C-0.745,-1.186 -0.418,-1.505 0,-1.505" style="fill:rgb(250,47,86);fill-rule:nonzero;"/>
        </g>
        <g transform="matrix(-0.702713,0,0,0.702713,551.125,33.3086)">
            <path d="M0.008,-1.505C0.426,-1.505 0.76,-1.186 0.76,-0.761C0.76,-0.35 0.426,0 0.008,0C-0.41,0 -0.752,-0.35 -0.752,-0.761C-0.752,-1.186 -0.41,-1.505 0.008,-1.505" style="fill:rgb(250,47,86);fill-rule:nonzero;"/>
        </g>
        <g transform="matrix(-0.702713,0,0,0.702713,557.468,33.3086)">
            <path d="M-0.008,-1.505C0.41,-1.505 0.752,-1.186 0.752,-0.761C0.752,-0.35 0.41,0 -0.008,0C-0.411,0 -0.76,-0.35 -0.76,-0.761C-0.76,-1.186 -0.411,-1.505 -0.008,-1.505" style="fill:rgb(250,47,86);fill-rule:nonzero;"/>
        </g>
        <g transform="matrix(-0.702713,0,0,0.702713,563.812,33.3086)">
            <path d="M-0.015,-1.505C0.403,-1.505 0.745,-1.186 0.745,-0.761C0.745,-0.35 0.403,0 -0.015,0C-0.433,0 -0.76,-0.35 -0.76,-0.761C-0.76,-1.186 -0.433,-1.505 -0.015,-1.505" style="fill:rgb(250,47,86);fill-rule:nonzero;"/>
        </g>
        <g transform="matrix(-0.702713,0,0,0.702713,481.272,39.5559)">
            <path d="M0,-1.217C0.327,-1.217 0.6,-0.959 0.6,-0.609C0.6,-0.274 0.327,0 0,0C-0.334,0 -0.6,-0.274 -0.6,-0.609C-0.6,-0.959 -0.334,-1.217 0,-1.217" style="fill:rgb(250,47,86);fill-rule:nonzero;"/>
        </g>
        <g transform="matrix(-0.702713,0,0,0.702713,487.627,39.5559)">
            <path d="M0.008,-1.217C0.342,-1.217 0.608,-0.959 0.608,-0.609C0.608,-0.274 0.342,0 0.008,0C-0.334,0 -0.6,-0.274 -0.6,-0.609C-0.6,-0.959 -0.334,-1.217 0.008,-1.217" style="fill:rgb(250,47,86);fill-rule:nonzero;"/>
        </g>
        <g transform="matrix(-0.702713,0,0,0.702713,493.975,39.5559)">
            <path d="M0,-1.217C0.327,-1.217 0.6,-0.959 0.6,-0.609C0.6,-0.274 0.327,0 0,0C-0.334,0 -0.6,-0.274 -0.6,-0.609C-0.6,-0.959 -0.334,-1.217 0,-1.217" style="fill:rgb(250,47,86);fill-rule:nonzero;"/>
        </g>
        <g transform="matrix(-0.702713,0,0,0.702713,500.324,39.5559)">
            <path d="M0,-1.217C0.334,-1.217 0.6,-0.959 0.6,-0.609C0.6,-0.274 0.334,0 0,0C-0.327,0 -0.6,-0.274 -0.6,-0.609C-0.6,-0.959 -0.327,-1.217 0,-1.217" style="fill:rgb(250,47,86);fill-rule:nonzero;"/>
        </g>
        <g transform="matrix(-0.702713,0,0,0.702713,506.673,39.5559)">
            <path d="M0,-1.217C0.334,-1.217 0.6,-0.959 0.6,-0.609C0.6,-0.274 0.334,0 0,0C-0.327,0 -0.6,-0.274 -0.6,-0.609C-0.6,-0.959 -0.327,-1.217 0,-1.217" style="fill:rgb(250,47,86);fill-rule:nonzero;"/>
        </g>
        <g transform="matrix(-0.702713,0,0,0.702713,513.027,39.5559)">
            <path d="M0,-1.217C0.334,-1.217 0.6,-0.959 0.6,-0.609C0.6,-0.274 0.334,0 0,0C-0.327,0 -0.6,-0.274 -0.6,-0.609C-0.6,-0.959 -0.327,-1.217 0,-1.217" style="fill:rgb(250,47,86);fill-rule:nonzero;"/>
        </g>
        <g transform="matrix(-0.702713,0,0,0.702713,519.376,39.5559)">
            <path d="M0,-1.217C0.334,-1.217 0.6,-0.959 0.6,-0.609C0.6,-0.274 0.334,0 0,0C-0.327,0 -0.6,-0.274 -0.6,-0.609C-0.6,-0.959 -0.327,-1.217 0,-1.217" style="fill:rgb(250,47,86);fill-rule:nonzero;"/>
        </g>
        <g transform="matrix(-0.702713,0,0,0.702713,525.719,39.5559)">
            <path d="M0,-1.217C0.327,-1.217 0.6,-0.959 0.6,-0.609C0.6,-0.274 0.327,0 0,0C-0.334,0 -0.6,-0.274 -0.6,-0.609C-0.6,-0.959 -0.334,-1.217 0,-1.217" style="fill:rgb(250,47,86);fill-rule:nonzero;"/>
        </g>
        <g transform="matrix(-0.702713,0,0,0.702713,532.079,39.5559)">
            <path d="M0.016,-1.217C0.343,-1.217 0.616,-0.959 0.616,-0.609C0.616,-0.274 0.343,0 0.016,0C-0.326,0 -0.6,-0.274 -0.6,-0.609C-0.6,-0.959 -0.326,-1.217 0.016,-1.217" style="fill:rgb(250,47,86);fill-rule:nonzero;"/>
        </g>
        <g transform="matrix(-0.702713,0,0,0.702713,538.422,39.5559)">
            <path d="M0,-1.217C0.327,-1.217 0.6,-0.959 0.6,-0.609C0.6,-0.274 0.327,0 0,0C-0.334,0 -0.6,-0.274 -0.6,-0.609C-0.6,-0.959 -0.334,-1.217 0,-1.217" style="fill:rgb(250,47,86);fill-rule:nonzero;"/>
        </g>
        <g transform="matrix(-0.702713,0,0,0.702713,544.771,39.5559)">
            <path d="M0,-1.217C0.327,-1.217 0.6,-0.959 0.6,-0.609C0.6,-0.274 0.327,0 0,0C-0.334,0 -0.6,-0.274 -0.6,-0.609C-0.6,-0.959 -0.334,-1.217 0,-1.217" style="fill:rgb(250,47,86);fill-rule:nonzero;"/>
        </g>
        <g transform="matrix(-0.702713,0,0,0.702713,551.12,39.5559)">
            <path d="M0,-1.217C0.334,-1.217 0.6,-0.959 0.6,-0.609C0.6,-0.274 0.334,0 0,0C-0.327,0 -0.6,-0.274 -0.6,-0.609C-0.6,-0.959 -0.327,-1.217 0,-1.217" style="fill:rgb(250,47,86);fill-rule:nonzero;"/>
        </g>
        <g transform="matrix(-0.702713,0,0,0.702713,557.463,39.5559)">
            <path d="M-0.015,-1.217C0.327,-1.217 0.6,-0.959 0.6,-0.609C0.6,-0.274 0.327,0 -0.015,0C-0.349,0 -0.615,-0.274 -0.615,-0.609C-0.615,-0.959 -0.349,-1.217 -0.015,-1.217" style="fill:rgb(250,47,86);fill-rule:nonzero;"/>
        </g>
        <g transform="matrix(-0.702713,0,0,0.702713,563.822,39.5559)">
            <path d="M0,-1.217C0.334,-1.217 0.6,-0.959 0.6,-0.609C0.6,-0.274 0.334,0 0,0C-0.327,0 -0.6,-0.274 -0.6,-0.609C-0.6,-0.959 -0.327,-1.217 0,-1.217" style="fill:rgb(250,47,86);fill-rule:nonzero;"/>
        </g>
        <g transform="matrix(-0.702713,0,0,0.702713,481.272,45.8132)">
            <path d="M0,-0.957C0.258,-0.957 0.479,-0.744 0.479,-0.486C0.479,-0.227 0.258,0 0,0C-0.274,0 -0.479,-0.227 -0.479,-0.486C-0.479,-0.744 -0.274,-0.957 0,-0.957" style="fill:rgb(250,47,86);fill-rule:nonzero;"/>
        </g>
        <g transform="matrix(-0.702713,0,0,0.702713,487.632,45.8132)">
            <path d="M0.015,-0.957C0.273,-0.957 0.479,-0.744 0.479,-0.486C0.479,-0.227 0.273,0 0.015,0C-0.251,0 -0.464,-0.227 -0.464,-0.486C-0.464,-0.744 -0.251,-0.957 0.015,-0.957" style="fill:rgb(250,47,86);fill-rule:nonzero;"/>
        </g>
        <g transform="matrix(-0.702713,0,0,0.702713,493.975,45.8132)">
            <path d="M0,-0.957C0.266,-0.957 0.479,-0.744 0.479,-0.486C0.479,-0.227 0.266,0 0,0C-0.258,0 -0.479,-0.227 -0.479,-0.486C-0.479,-0.744 -0.258,-0.957 0,-0.957" style="fill:rgb(250,47,86);fill-rule:nonzero;"/>
        </g>
        <g transform="matrix(-0.702713,0,0,0.702713,500.324,45.8132)">
            <path d="M0,-0.957C0.258,-0.957 0.479,-0.744 0.479,-0.486C0.479,-0.227 0.258,0 0,0C-0.266,0 -0.479,-0.227 -0.479,-0.486C-0.479,-0.744 -0.266,-0.957 0,-0.957" style="fill:rgb(250,47,86);fill-rule:nonzero;"/>
        </g>
        <g transform="matrix(-0.702713,0,0,0.702713,506.667,45.8132)">
            <path d="M-0.008,-0.957C0.25,-0.957 0.471,-0.744 0.471,-0.486C0.471,-0.227 0.25,0 -0.008,0C-0.274,0 -0.479,-0.227 -0.479,-0.486C-0.479,-0.744 -0.274,-0.957 -0.008,-0.957" style="fill:rgb(250,47,86);fill-rule:nonzero;"/>
        </g>
        <g transform="matrix(-0.702713,0,0,0.702713,513.016,45.8132)">
            <path d="M-0.015,-0.957C0.258,-0.957 0.464,-0.744 0.464,-0.486C0.464,-0.227 0.258,0 -0.015,0C-0.273,0 -0.479,-0.227 -0.479,-0.486C-0.479,-0.744 -0.273,-0.957 -0.015,-0.957" style="fill:rgb(250,47,86);fill-rule:nonzero;"/>
        </g>
        <g transform="matrix(-0.702713,0,0,0.702713,519.376,45.8132)">
            <path d="M0,-0.957C0.273,-0.957 0.479,-0.744 0.479,-0.486C0.479,-0.227 0.273,0 0,0C-0.251,0 -0.479,-0.227 -0.479,-0.486C-0.479,-0.744 -0.251,-0.957 0,-0.957" style="fill:rgb(250,47,86);fill-rule:nonzero;"/>
        </g>
        <g transform="matrix(-0.702713,0,0,0.702713,525.719,45.8132)">
            <path d="M0,-0.957C0.258,-0.957 0.479,-0.744 0.479,-0.486C0.479,-0.227 0.258,0 0,0C-0.273,0 -0.479,-0.227 -0.479,-0.486C-0.479,-0.744 -0.273,-0.957 0,-0.957" style="fill:rgb(250,47,86);fill-rule:nonzero;"/>
        </g>
        <g transform="matrix(-0.702713,0,0,0.702713,532.078,45.8132)">
            <path d="M0.015,-0.957C0.273,-0.957 0.479,-0.744 0.479,-0.486C0.479,-0.227 0.273,0 0.015,0C-0.258,0 -0.464,-0.227 -0.464,-0.486C-0.464,-0.744 -0.258,-0.957 0.015,-0.957" style="fill:rgb(250,47,86);fill-rule:nonzero;"/>
        </g>
        <g transform="matrix(-0.702713,0,0,0.702713,538.422,45.8132)">
            <path d="M0,-0.957C0.266,-0.957 0.479,-0.744 0.479,-0.486C0.479,-0.227 0.266,0 0,0C-0.258,0 -0.479,-0.227 -0.479,-0.486C-0.479,-0.744 -0.258,-0.957 0,-0.957" style="fill:rgb(250,47,86);fill-rule:nonzero;"/>
        </g>
        <g transform="matrix(-0.702713,0,0,0.702713,544.771,45.8132)">
            <path d="M0,-0.957C0.258,-0.957 0.479,-0.744 0.479,-0.486C0.479,-0.227 0.258,0 0,0C-0.258,0 -0.479,-0.227 -0.479,-0.486C-0.479,-0.744 -0.258,-0.957 0,-0.957" style="fill:rgb(250,47,86);fill-rule:nonzero;"/>
        </g>
        <g transform="matrix(-0.702713,0,0,0.702713,551.12,45.8132)">
            <path d="M0,-0.957C0.258,-0.957 0.479,-0.744 0.479,-0.486C0.479,-0.227 0.258,0 0,0C-0.266,0 -0.479,-0.227 -0.479,-0.486C-0.479,-0.744 -0.266,-0.957 0,-0.957" style="fill:rgb(250,47,86);fill-rule:nonzero;"/>
        </g>
        <g transform="matrix(-0.702713,0,0,0.702713,557.463,45.8132)">
            <path d="M-0.015,-0.957C0.251,-0.957 0.464,-0.744 0.464,-0.486C0.464,-0.227 0.251,0 -0.015,0C-0.273,0 -0.479,-0.227 -0.479,-0.486C-0.479,-0.744 -0.273,-0.957 -0.015,-0.957" style="fill:rgb(250,47,86);fill-rule:nonzero;"/>
        </g>
        <g transform="matrix(-0.702713,0,0,0.702713,563.822,45.8132)">
            <path d="M0,-0.957C0.273,-0.957 0.479,-0.744 0.479,-0.486C0.479,-0.227 0.273,0 0,0C-0.258,0 -0.479,-0.227 -0.479,-0.486C-0.479,-0.744 -0.258,-0.957 0,-0.957" style="fill:rgb(250,47,86);fill-rule:nonzero;"/>
        </g>
        <g transform="matrix(-0.702713,0,0,0.702713,481.283,52.0497)">
            <path d="M0.015,-0.638C0.182,-0.638 0.334,-0.501 0.334,-0.319C0.334,-0.135 0.182,0 0.015,0C-0.167,0 -0.319,-0.135 -0.319,-0.319C-0.319,-0.501 -0.167,-0.638 0.015,-0.638" style="fill:rgb(250,47,86);fill-rule:nonzero;"/>
        </g>
        <g transform="matrix(-0.702713,0,0,0.702713,487.627,52.0497)">
            <path d="M0.008,-0.638C0.183,-0.638 0.327,-0.501 0.327,-0.319C0.327,-0.135 0.183,0 0.008,0C-0.174,0 -0.319,-0.135 -0.319,-0.319C-0.319,-0.501 -0.174,-0.638 0.008,-0.638" style="fill:rgb(250,47,86);fill-rule:nonzero;"/>
        </g>
        <g transform="matrix(-0.702713,0,0,0.702713,493.969,52.0497)">
            <path d="M-0.008,-0.638C0.174,-0.638 0.319,-0.501 0.319,-0.319C0.319,-0.135 0.174,0 -0.008,0C-0.183,0 -0.327,-0.135 -0.327,-0.319C-0.327,-0.501 -0.183,-0.638 -0.008,-0.638" style="fill:rgb(250,47,86);fill-rule:nonzero;"/>
        </g>
        <g transform="matrix(-0.702713,0,0,0.702713,500.319,52.0497)">
            <path d="M-0.007,-0.638C0.175,-0.638 0.327,-0.501 0.327,-0.319C0.327,-0.135 0.175,0 -0.007,0C-0.189,0 -0.334,-0.135 -0.334,-0.319C-0.334,-0.501 -0.189,-0.638 -0.007,-0.638" style="fill:rgb(250,47,86);fill-rule:nonzero;"/>
        </g>
        <g transform="matrix(-0.702713,0,0,0.702713,506.678,52.0497)">
            <path d="M0.008,-0.638C0.183,-0.638 0.327,-0.501 0.327,-0.319C0.327,-0.135 0.183,0 0.008,0C-0.174,0 -0.319,-0.135 -0.319,-0.319C-0.319,-0.501 -0.174,-0.638 0.008,-0.638" style="fill:rgb(250,47,86);fill-rule:nonzero;"/>
        </g>
        <g transform="matrix(-0.702713,0,0,0.702713,513.016,52.0497)">
            <path d="M-0.015,-0.638C0.167,-0.638 0.319,-0.501 0.319,-0.319C0.319,-0.135 0.167,0 -0.015,0C-0.182,0 -0.334,-0.135 -0.334,-0.319C-0.334,-0.501 -0.182,-0.638 -0.015,-0.638" style="fill:rgb(250,47,86);fill-rule:nonzero;"/>
        </g>
        <g transform="matrix(-0.702713,0,0,0.702713,519.365,52.0497)">
            <path d="M-0.015,-0.638C0.175,-0.638 0.319,-0.501 0.319,-0.319C0.319,-0.135 0.175,0 -0.015,0C-0.197,0 -0.334,-0.135 -0.334,-0.319C-0.334,-0.501 -0.197,-0.638 -0.015,-0.638" style="fill:rgb(250,47,86);fill-rule:nonzero;"/>
        </g>
        <g transform="matrix(-0.702713,0,0,0.702713,525.73,52.0497)">
            <path d="M0.015,-0.638C0.197,-0.638 0.334,-0.501 0.334,-0.319C0.334,-0.135 0.197,0 0.015,0C-0.175,0 -0.319,-0.135 -0.319,-0.319C-0.319,-0.501 -0.175,-0.638 0.015,-0.638" style="fill:rgb(250,47,86);fill-rule:nonzero;"/>
        </g>
        <g transform="matrix(-0.702713,0,0,0.702713,532.078,52.0497)">
            <path d="M0.015,-0.638C0.19,-0.638 0.334,-0.501 0.334,-0.319C0.334,-0.135 0.19,0 0.015,0C-0.167,0 -0.319,-0.135 -0.319,-0.319C-0.319,-0.501 -0.167,-0.638 0.015,-0.638" style="fill:rgb(250,47,86);fill-rule:nonzero;"/>
        </g>
        <g transform="matrix(-0.702713,0,0,0.702713,538.416,52.0497)">
            <path d="M-0.008,-0.638C0.174,-0.638 0.319,-0.501 0.319,-0.319C0.319,-0.135 0.174,0 -0.008,0C-0.183,0 -0.327,-0.135 -0.327,-0.319C-0.327,-0.501 -0.183,-0.638 -0.008,-0.638" style="fill:rgb(250,47,86);fill-rule:nonzero;"/>
        </g>
        <g transform="matrix(-0.702713,0,0,0.702713,544.776,52.0497)">
            <path d="M0.007,-0.638C0.189,-0.638 0.334,-0.501 0.334,-0.319C0.334,-0.135 0.189,0 0.007,0C-0.175,0 -0.327,-0.135 -0.327,-0.319C-0.327,-0.501 -0.175,-0.638 0.007,-0.638" style="fill:rgb(250,47,86);fill-rule:nonzero;"/>
        </g>
        <g transform="matrix(-0.702713,0,0,0.702713,551.125,52.0497)">
            <path d="M0.008,-0.638C0.183,-0.638 0.327,-0.501 0.327,-0.319C0.327,-0.135 0.183,0 0.008,0C-0.174,0 -0.319,-0.135 -0.319,-0.319C-0.319,-0.501 -0.174,-0.638 0.008,-0.638" style="fill:rgb(250,47,86);fill-rule:nonzero;"/>
        </g>
        <g transform="matrix(-0.702713,0,0,0.702713,557.468,52.0497)">
            <path d="M-0.008,-0.638C0.174,-0.638 0.319,-0.501 0.319,-0.319C0.319,-0.135 0.174,0 -0.008,0C-0.183,0 -0.327,-0.135 -0.327,-0.319C-0.327,-0.501 -0.183,-0.638 -0.008,-0.638" style="fill:rgb(250,47,86);fill-rule:nonzero;"/>
        </g>
        <g transform="matrix(-0.702713,0,0,0.702713,563.812,52.0497)">
            <path d="M-0.015,-0.638C0.167,-0.638 0.319,-0.501 0.319,-0.319C0.319,-0.135 0.167,0 -0.015,0C-0.197,0 -0.334,-0.135 -0.334,-0.319C-0.334,-0.501 -0.197,-0.638 -0.015,-0.638" style="fill:rgb(250,47,86);fill-rule:nonzero;"/>
        </g>
        <g transform="matrix(0.702713,0,0,0.702713,392.27,209.298)">
            <path d="M0,205.607C4.587,195.282 4.889,183.527 0.811,172.991C0.671,172.627 0.559,172.36 0.484,172.215C-2.974,165.539 -7.127,159.244 -11.655,153.25C-22.157,139.348 -34.439,125.868 -48.1,115.025C-66.542,100.387 -88.577,90.488 -111.812,86.611C-136.08,82.562 -162.375,84.642 -184.635,72.516C-213.286,56.909 -220.805,23.965 -211.006,-5.42C-204.468,-25.027 -193.938,-45.445 -199.329,-66.637C-203.2,-81.851 -216.063,-95.801 -230.586,-101.712C-238.824,-105.065 -277.126,-116.188 -315.311,-63.105C-348.684,-16.71 -420.871,62.406 -328.777,135.446C-240.846,205.184 -51.62,321.795 0,205.607" style="fill:rgb(237,108,170);fill-rule:nonzero;"/>
        </g>
        <g transform="matrix(0.702713,0,0,0.702713,407.821,245.915)">
            <path d="M0,137.879C2.496,126.86 0.51,115.27 -5.536,105.726C-5.744,105.397 -5.905,105.156 -6.007,105.029C-10.695,99.15 -15.992,93.782 -21.597,88.781C-34.598,77.182 -49.263,66.342 -64.769,58.357C-85.702,47.578 -109.239,42.144 -132.785,42.852C-157.377,43.591 -182.768,50.736 -206.959,43.161C-238.094,33.413 -251.866,2.555 -247.957,-28.174C-245.349,-48.677 -238.983,-70.75 -248.386,-90.493C-255.136,-104.666 -270.463,-115.853 -285.857,-118.832C-294.589,-120.522 -334.322,-123.999 -361.475,-64.514C-385.208,-12.523 -440.664,79.102 -336.143,132.875C-236.346,184.217 -28.084,261.878 0,137.879" style="fill:rgb(238,125,145);fill-rule:nonzero;"/>
        </g>
        <g transform="matrix(0.702713,0,0,0.702713,491.34,51.0531)">
            <path d="M0,424.303C-18.079,424.303 -35.846,421.016 -51.756,414.693C-71.065,407.018 -86.996,394.99 -97.824,379.907C-106.499,367.824 -112.48,353.334 -118.265,339.321C-128.083,315.53 -137.358,293.059 -158.687,281.225C-176.086,271.571 -197.352,272.547 -211.832,274.12C-223.545,275.394 -235.395,277.539 -246.854,279.614C-268.068,283.454 -290,287.428 -311.821,285.982C-345.028,283.785 -381.606,263.97 -387.265,230.35C-390.973,208.323 -381.041,188.548 -370.526,167.614C-362.844,152.318 -354.9,136.502 -352.888,119.82C-348.769,85.669 -373.621,50.351 -407.157,42.696C-434.126,36.537 -461.604,46.539 -484.926,57.132C-488.82,58.901 -492.778,60.757 -496.607,62.551C-516.99,72.108 -538.068,81.989 -560.64,84.146C-586.633,86.628 -617.953,75.541 -627.53,49.548C-632.559,35.9 -631.262,19.278 -623.564,-1.267L-623.097,-1.092C-630.75,19.336 -632.046,35.844 -627.061,49.374C-617.571,75.131 -586.481,86.113 -560.687,83.648C-538.202,81.499 -517.164,71.637 -496.819,62.099C-492.989,60.303 -489.029,58.447 -485.133,56.677C-461.735,46.048 -434.161,36.019 -407.045,42.207C-373.271,49.917 -348.243,85.487 -352.392,119.88C-354.414,136.649 -362.378,152.504 -370.079,167.837C-380.557,188.698 -390.453,208.401 -386.772,230.268C-381.156,263.631 -344.8,283.299 -311.788,285.484C-290.044,286.918 -268.129,282.956 -246.943,279.121C-235.475,277.045 -223.616,274.899 -211.887,273.623C-197.336,272.042 -175.966,271.065 -158.445,280.787C-136.963,292.706 -127.655,315.256 -117.802,339.13C-112.029,353.116 -106.06,367.58 -97.418,379.616C-76.545,408.688 -36.696,425.57 6.545,423.658C47.313,421.864 85.866,405.532 118.802,390.365L119.011,390.821C86.032,406.006 47.426,422.36 6.566,424.158C4.376,424.255 2.185,424.303 0,424.303" style="fill:rgb(250,47,86);fill-rule:nonzero;"/>
        </g>
        <g transform="matrix(0.702713,0,0,0.702713,486.681,54.1081)">
            <path d="M0,424.311C-18.079,424.311 -35.846,421.024 -51.756,414.701C-71.065,407.026 -86.996,394.998 -97.824,379.915C-106.499,367.832 -112.48,353.342 -118.264,339.329C-128.083,315.538 -137.358,293.066 -158.687,281.233C-176.085,271.579 -197.351,272.556 -211.832,274.128C-223.545,275.402 -235.395,277.547 -246.854,279.622C-268.068,283.462 -290,287.438 -311.821,285.99C-345.028,283.793 -381.605,263.978 -387.265,230.358C-390.973,208.33 -381.041,188.556 -370.526,167.621C-362.844,152.326 -354.9,136.509 -352.888,119.827C-348.769,85.676 -373.621,50.358 -407.157,42.703C-434.126,36.544 -461.604,46.545 -484.926,57.14C-488.82,58.909 -492.778,60.764 -496.606,62.559C-516.99,72.115 -538.068,81.997 -560.64,84.153C-586.629,86.629 -617.953,75.55 -627.53,49.556C-632.559,35.907 -631.262,19.286 -623.564,-1.259L-623.097,-1.084C-630.75,19.344 -632.046,35.851 -627.061,49.382C-617.571,75.139 -586.482,86.125 -560.687,83.655C-538.202,81.507 -517.164,71.644 -496.818,62.106C-492.989,60.311 -489.029,58.455 -485.133,56.685C-461.734,46.056 -434.16,36.027 -407.045,42.214C-373.271,49.924 -348.243,85.494 -352.392,119.887C-354.414,136.656 -362.378,152.511 -370.079,167.845C-380.557,188.706 -390.453,208.408 -386.772,230.276C-381.156,263.639 -344.8,283.307 -311.788,285.492C-290.042,286.923 -268.128,282.964 -246.943,279.129C-235.475,277.053 -223.616,274.907 -211.887,273.631C-197.336,272.051 -175.967,271.073 -158.445,280.795C-136.963,292.714 -127.655,315.264 -117.802,339.137C-112.029,353.124 -106.06,367.588 -97.418,379.624C-76.545,408.696 -36.691,425.57 6.545,423.666C47.309,421.872 85.863,405.54 118.802,390.373L119.011,390.829C86.029,406.014 47.421,422.368 6.566,424.166C4.376,424.263 2.185,424.311 0,424.311" style="fill:rgb(250,47,86);fill-rule:nonzero;"/>
        </g>
        <g transform="matrix(0.702713,0,0,0.702713,482.021,57.1765)">
            <path d="M0,424.3C-18.079,424.3 -35.846,421.013 -51.756,414.69C-71.065,407.015 -86.996,394.986 -97.824,379.904C-106.499,367.821 -112.48,353.33 -118.265,339.317C-128.083,315.526 -137.358,293.055 -158.687,281.221C-176.089,271.566 -197.354,272.544 -211.832,274.117C-223.546,275.391 -235.397,277.536 -246.858,279.612C-268.071,283.451 -290.006,287.422 -311.821,285.979C-345.029,283.781 -381.606,263.966 -387.265,230.347C-390.973,208.319 -381.041,188.545 -370.526,167.61C-362.844,152.315 -354.9,136.498 -352.888,119.816C-348.769,85.665 -373.621,50.347 -407.157,42.692C-434.126,36.531 -461.604,46.534 -484.926,57.129C-488.822,58.899 -492.783,60.755 -496.614,62.551C-516.995,72.106 -538.07,81.986 -560.64,84.142C-586.63,86.618 -617.953,75.537 -627.53,49.544C-632.559,35.896 -631.262,19.275 -623.564,-1.27L-623.097,-1.095C-630.75,19.333 -632.046,35.84 -627.061,49.37C-617.571,75.127 -586.484,86.106 -560.687,83.644C-538.204,81.496 -517.169,71.635 -496.826,62.099C-492.994,60.302 -489.032,58.445 -485.133,56.674C-461.735,46.045 -434.16,36.015 -407.045,42.203C-373.271,49.913 -348.243,85.483 -352.392,119.876C-354.414,136.645 -362.378,152.5 -370.079,167.834C-380.557,188.695 -390.453,208.397 -386.772,230.265C-381.157,263.627 -344.8,283.295 -311.788,285.481C-290.038,286.915 -268.132,282.953 -246.948,279.119C-235.479,277.042 -223.617,274.896 -211.887,273.62C-197.339,272.038 -175.97,271.061 -158.445,280.783C-136.963,292.702 -127.655,315.252 -117.802,339.126C-112.029,353.113 -106.06,367.576 -97.418,379.612C-76.545,408.685 -36.695,425.57 6.545,423.655C47.307,421.861 85.862,405.529 118.802,390.362L119.011,390.818C86.028,406.004 47.42,422.357 6.566,424.155C4.376,424.252 2.185,424.3 0,424.3" style="fill:rgb(250,47,86);fill-rule:nonzero;"/>
        </g>
        <g transform="matrix(0.702713,0,0,0.702713,477.361,60.2308)">
            <path d="M0,424.308C-18.08,424.308 -35.846,421.021 -51.756,414.698C-71.065,407.023 -86.996,394.995 -97.824,379.912C-106.5,367.83 -112.48,353.339 -118.265,339.326C-128.084,315.535 -137.358,293.064 -158.687,281.23C-176.086,271.577 -197.349,272.55 -211.832,274.126C-223.544,275.399 -235.394,277.544 -246.854,279.619C-268.067,283.459 -290.001,287.433 -311.822,285.987C-345.029,283.79 -381.606,263.975 -387.265,230.356C-390.973,208.328 -381.041,188.553 -370.526,167.619C-362.844,152.323 -354.9,136.507 -352.888,119.825C-348.77,85.674 -373.622,50.355 -407.157,42.701C-434.127,36.542 -461.605,46.544 -484.926,57.137C-488.82,58.906 -492.778,60.761 -496.607,62.556C-516.99,72.113 -538.068,81.994 -560.64,84.151C-586.632,86.628 -617.954,75.546 -627.531,49.553C-632.559,35.905 -631.262,19.283 -623.565,-1.262L-623.096,-1.087C-630.75,19.341 -632.046,35.849 -627.062,49.38C-617.571,75.136 -586.484,86.115 -560.687,83.653C-538.202,81.504 -517.164,71.642 -496.819,62.104C-492.99,60.308 -489.029,58.452 -485.133,56.682C-461.736,46.053 -434.16,36.025 -407.045,42.212C-373.272,49.922 -348.244,85.492 -352.392,119.885C-354.414,136.654 -362.378,152.509 -370.079,167.842C-380.557,188.703 -390.453,208.406 -386.772,230.273C-381.157,263.636 -344.801,283.304 -311.789,285.489C-290.035,286.931 -268.128,282.962 -246.942,279.126C-235.475,277.05 -223.616,274.904 -211.887,273.628C-197.336,272.047 -175.968,271.07 -158.445,280.792C-136.963,292.711 -127.655,315.261 -117.802,339.135C-112.029,353.122 -106.06,367.585 -97.418,379.621C-76.546,408.692 -36.717,425.57 6.545,423.663C47.313,421.869 85.865,405.537 118.801,390.37L119.01,390.825C86.031,406.011 47.425,422.365 6.566,424.163C4.376,424.259 2.184,424.308 0,424.308" style="fill:rgb(250,47,86);fill-rule:nonzero;"/>
        </g>
        <g transform="matrix(0.702713,0,0,0.702713,472.702,63.2866)">
            <path d="M0,424.315C-18.08,424.315 -35.846,421.028 -51.756,414.705C-71.065,407.03 -86.996,395.002 -97.824,379.919C-106.499,367.836 -112.48,353.346 -118.264,339.333C-128.083,315.542 -137.358,293.071 -158.687,281.237C-176.085,271.584 -197.35,272.557 -211.832,274.133C-223.544,275.406 -235.395,277.551 -246.854,279.626C-268.068,283.466 -290.003,287.441 -311.822,285.994C-345.029,283.797 -381.606,263.982 -387.266,230.363C-390.973,208.335 -381.042,188.56 -370.526,167.626C-362.844,152.33 -354.9,136.513 -352.888,119.831C-348.77,85.68 -373.622,50.361 -407.157,42.708C-434.126,36.55 -461.604,46.55 -484.927,57.144C-488.82,58.913 -492.778,60.768 -496.605,62.563C-516.989,72.119 -538.067,82.001 -560.64,84.157C-586.633,86.633 -617.953,75.554 -627.531,49.56C-632.559,35.911 -631.262,19.29 -623.565,-1.255L-623.096,-1.08C-630.75,19.347 -632.046,35.855 -627.062,49.387C-617.571,75.144 -586.483,86.129 -560.687,83.659C-538.201,81.511 -517.163,71.648 -496.817,62.11C-492.989,60.315 -489.029,58.459 -485.134,56.689C-461.735,46.06 -434.161,36.03 -407.045,42.219C-373.272,49.928 -348.244,85.498 -352.392,119.891C-354.414,136.66 -362.378,152.516 -370.08,167.85C-380.557,188.71 -390.453,208.413 -386.772,230.28C-381.157,263.643 -344.8,283.311 -311.789,285.496C-290.037,286.93 -268.129,282.968 -246.943,279.133C-235.475,277.057 -223.616,274.911 -211.887,273.635C-197.336,272.054 -175.968,271.077 -158.445,280.799C-136.963,292.718 -127.655,315.268 -117.802,339.142C-112.029,353.128 -106.06,367.592 -97.418,379.628C-76.546,408.699 -36.715,425.57 6.545,423.67C47.308,421.876 85.862,405.544 118.801,390.377L119.01,390.832C86.028,406.018 47.42,422.372 6.566,424.17C4.376,424.266 2.184,424.315 0,424.315" style="fill:rgb(250,47,86);fill-rule:nonzero;"/>
        </g>
        <g transform="matrix(0.702713,0,0,0.702713,468.042,66.3563)">
            <path d="M0,424.302C-18.08,424.302 -35.846,421.015 -51.756,414.692C-71.065,407.017 -86.996,394.988 -97.824,379.906C-106.5,367.823 -112.48,353.332 -118.265,339.319C-128.084,315.528 -137.358,293.057 -158.687,281.223C-176.086,271.572 -197.349,272.544 -211.832,274.12C-223.547,275.393 -235.398,277.538 -246.86,279.614C-268.072,283.453 -290.004,287.425 -311.822,285.981C-345.029,283.784 -381.606,263.969 -387.266,230.35C-390.973,208.321 -381.042,188.547 -370.526,167.613C-362.844,152.317 -354.9,136.5 -352.888,119.818C-348.77,85.667 -373.622,50.348 -407.157,42.694C-434.129,36.534 -461.605,46.536 -484.927,57.131C-488.822,58.901 -492.783,60.757 -496.613,62.553C-516.995,72.108 -538.07,81.988 -560.64,84.144C-586.641,86.62 -617.953,75.541 -627.531,49.547C-632.559,35.899 -631.262,19.277 -623.565,-1.268L-623.097,-1.093C-630.75,19.335 -632.046,35.843 -627.062,49.374C-617.571,75.131 -586.484,86.115 -560.687,83.646C-538.204,81.498 -517.168,71.637 -496.825,62.1C-492.994,60.304 -489.032,58.447 -485.134,56.676C-461.734,46.047 -434.161,36.019 -407.045,42.205C-373.272,49.915 -348.244,85.485 -352.392,119.878C-354.414,136.647 -362.378,152.503 -370.08,167.836C-380.557,188.697 -390.453,208.4 -386.772,230.267C-381.156,263.63 -344.8,283.298 -311.789,285.483C-290.037,286.914 -268.132,282.955 -246.949,279.121C-235.479,277.045 -223.618,274.898 -211.887,273.622C-197.337,272.042 -175.968,271.065 -158.445,280.785C-136.963,292.704 -127.655,315.254 -117.802,339.128C-112.029,353.114 -106.06,367.578 -97.418,379.614C-76.546,408.686 -36.723,425.57 6.545,423.657C47.308,421.863 85.862,405.531 118.801,390.364L119.01,390.819C86.028,406.005 47.42,422.359 6.566,424.157C4.376,424.253 2.184,424.302 0,424.302" style="fill:rgb(250,47,86);fill-rule:nonzero;"/>
        </g>
        <g transform="matrix(0.702713,0,0,0.702713,463.385,69.412)">
            <path d="M0,424.309C-18.08,424.309 -35.849,421.021 -51.759,414.698C-71.068,407.023 -86.999,394.995 -97.827,379.913C-106.503,367.83 -112.483,353.339 -118.268,339.326C-128.087,315.535 -137.361,293.064 -158.69,281.23C-176.088,271.577 -197.353,272.553 -211.835,274.125C-223.548,275.399 -235.398,277.544 -246.857,279.619C-268.072,283.459 -290.005,287.432 -311.825,285.987C-345.032,283.79 -381.609,263.975 -387.269,230.355C-390.976,208.328 -381.044,188.554 -370.529,167.62C-362.847,152.324 -354.903,136.508 -352.891,119.825C-348.772,85.674 -373.625,50.355 -407.16,42.701C-434.124,36.543 -461.606,46.544 -484.93,57.137C-488.823,58.906 -492.781,60.761 -496.609,62.556C-516.993,72.112 -538.07,81.994 -560.643,84.151C-586.635,86.628 -617.956,75.546 -627.534,49.553C-632.562,35.905 -631.265,19.283 -623.568,-1.262L-623.1,-1.087C-630.752,19.341 -632.049,35.849 -627.064,49.379C-617.574,75.136 -586.484,86.117 -560.69,83.653C-538.204,81.504 -517.167,71.641 -496.821,62.103C-492.992,60.308 -489.032,58.452 -485.137,56.682C-461.737,46.054 -434.161,36.025 -407.048,42.212C-373.275,49.922 -348.247,85.492 -352.395,119.885C-354.417,136.654 -362.381,152.51 -370.083,167.844C-380.56,188.704 -390.456,208.406 -386.775,230.273C-381.16,263.636 -344.803,283.304 -311.792,285.489C-290.037,286.93 -268.132,282.962 -246.947,279.127C-235.479,277.05 -223.619,274.904 -211.89,273.628C-197.34,272.047 -175.97,271.07 -158.448,280.792C-136.966,292.711 -127.658,315.261 -117.805,339.135C-112.032,353.121 -106.063,367.585 -97.421,379.621C-76.549,408.692 -36.718,425.571 6.542,423.664C47.305,421.87 85.859,405.538 118.798,390.371L119.007,390.826C86.025,406.012 47.417,422.366 6.563,424.164C4.373,424.26 2.185,424.309 0,424.309" style="fill:rgb(250,47,86);fill-rule:nonzero;"/>
        </g>
        <g transform="matrix(0.702713,0,0,0.702713,487.056,264.337)">
            <path d="M0,-5.913C-1.76,-6.338 -4.67,-4.605 -6.113,-3.605C-6.354,-5.344 -7.05,-8.66 -8.554,-9.667C-11.086,-11.363 -12.887,-9.03 -13.42,-6.485C-14.242,-2.561 -10.078,5.45 -10.078,5.45C-10.078,5.45 -1.377,3.084 0.953,-0.178C2.466,-2.292 2.962,-5.199 0,-5.913" style="fill:rgb(250,47,86);fill-rule:nonzero;"/>
        </g>
        <g transform="matrix(0.702713,0,0,0.702713,241.177,75.2501)">
            <path d="M0,-8.134C-2.797,-8.929 -7.579,-6.334 -9.96,-4.822C-10.236,-7.629 -11.141,-12.995 -13.49,-14.708C-17.444,-17.592 -20.486,-13.964 -21.505,-9.912C-23.076,-3.667 -16.905,9.458 -16.905,9.458C-16.905,9.458 -2.788,6.219 1.163,1.133C3.725,-2.164 4.708,-6.797 0,-8.134" style="fill:rgb(250,47,86);fill-rule:nonzero;"/>
        </g>
        <g transform="matrix(0.702713,0,0,0.702713,241.616,56.3751)">
            <path d="M0,-14.171C-1.727,-13.56 -3.239,-10.485 -3.912,-8.84C-5.076,-10.182 -7.496,-12.61 -9.327,-12.634C-12.41,-12.676 -12.651,-9.703 -11.698,-7.25C-10.23,-3.469 -2.278,1.028 -2.278,1.028C-2.278,1.028 3.797,-5.78 3.974,-9.833C4.089,-12.461 2.906,-15.199 0,-14.171" style="fill:rgb(250,47,86);fill-rule:nonzero;"/>
        </g>
    </g>
</svg>
