<?xml version="1.0" encoding="UTF-8" standalone="no"?>
<!DOCTYPE svg PUBLIC "-//W3C//DTD SVG 1.1//EN" "http://www.w3.org/Graphics/SVG/1.1/DTD/svg11.dtd">
<svg width="100%" height="100%" viewBox="0 0 242 162" version="1.1" xmlns="http://www.w3.org/2000/svg" xmlns:xlink="http://www.w3.org/1999/xlink" xml:space="preserve" xmlns:serif="http://www.serif.com/" style="fill-rule:evenodd;clip-rule:evenodd;stroke-linejoin:round;stroke-miterlimit:2;">
    <g transform="matrix(1,0,0,1,-329.07,-16.0934)">
        <g transform="matrix(1,0,0,1,394.906,34.7612)">
            <path d="M0,111.779C21.251,135.39 51.419,141.725 79.878,142.431C102.948,143.003 127.044,140.154 146.723,125.13C166.402,110.106 180.23,80.091 174.182,52.328C167.676,22.459 142.129,6.046 118.288,-2.585C80.447,-16.284 14.492,-31.224 -20.798,-1.224C-52.078,25.369 -21.073,88.366 0,111.779" style="fill:rgb(238,125,145);fill-rule:nonzero;"/>
        </g>
        <g transform="matrix(-1,0,0,1,330.529,53.8161)">
            <path d="M0.015,-2.918C0.813,-2.918 1.459,-2.264 1.459,-1.46C1.459,-0.669 0.813,0 0.015,0C-0.798,0 -1.444,-0.669 -1.444,-1.46C-1.444,-2.264 -0.798,-2.918 0.015,-2.918" style="fill:rgb(250,47,86);fill-rule:nonzero;"/>
        </g>
        <g transform="matrix(-1,0,0,1,339.563,53.8161)">
            <path d="M0.015,-2.918C0.813,-2.918 1.459,-2.264 1.459,-1.46C1.459,-0.669 0.813,0 0.015,0C-0.79,0 -1.444,-0.669 -1.444,-1.46C-1.444,-2.264 -0.79,-2.918 0.015,-2.918" style="fill:rgb(250,47,86);fill-rule:nonzero;"/>
        </g>
        <g transform="matrix(-1,0,0,1,348.575,53.8161)">
            <path d="M-0.015,-2.918C0.79,-2.918 1.444,-2.264 1.444,-1.46C1.444,-0.669 0.79,0 -0.015,0C-0.813,0 -1.459,-0.669 -1.459,-1.46C-1.459,-2.264 -0.813,-2.918 -0.015,-2.918" style="fill:rgb(250,47,86);fill-rule:nonzero;"/>
        </g>
        <g transform="matrix(-1,0,0,1,357.625,53.8161)">
            <path d="M0,-2.918C0.798,-2.918 1.459,-2.264 1.459,-1.46C1.459,-0.669 0.798,0 0,0C-0.806,0 -1.459,-0.669 -1.459,-1.46C-1.459,-2.264 -0.806,-2.918 0,-2.918" style="fill:rgb(250,47,86);fill-rule:nonzero;"/>
        </g>
        <g transform="matrix(-1,0,0,1,366.668,53.8161)">
            <path d="M0.008,-2.918C0.806,-2.918 1.459,-2.264 1.459,-1.46C1.459,-0.669 0.806,0 0.008,0C-0.798,0 -1.451,-0.669 -1.451,-1.46C-1.451,-2.264 -0.798,-2.918 0.008,-2.918" style="fill:rgb(250,47,86);fill-rule:nonzero;"/>
        </g>
        <g transform="matrix(-1,0,0,1,375.687,53.8161)">
            <path d="M-0.015,-2.918C0.798,-2.918 1.444,-2.264 1.444,-1.46C1.444,-0.669 0.798,0 -0.015,0C-0.813,0 -1.459,-0.669 -1.459,-1.46C-1.459,-2.264 -0.813,-2.918 -0.015,-2.918" style="fill:rgb(250,47,86);fill-rule:nonzero;"/>
        </g>
        <g transform="matrix(-1,0,0,1,384.737,53.8161)">
            <path d="M0,-2.918C0.813,-2.918 1.459,-2.264 1.459,-1.46C1.459,-0.669 0.813,0 0,0C-0.79,0 -1.459,-0.669 -1.459,-1.46C-1.459,-2.264 -0.79,-2.918 0,-2.918" style="fill:rgb(250,47,86);fill-rule:nonzero;"/>
        </g>
        <g transform="matrix(-1,0,0,1,393.779,53.8161)">
            <path d="M0.015,-2.918C0.813,-2.918 1.459,-2.264 1.459,-1.46C1.459,-0.669 0.813,0 0.015,0C-0.798,0 -1.444,-0.669 -1.444,-1.46C-1.444,-2.264 -0.798,-2.918 0.015,-2.918" style="fill:rgb(250,47,86);fill-rule:nonzero;"/>
        </g>
        <g transform="matrix(-1,0,0,1,402.814,53.8161)">
            <path d="M0.015,-2.918C0.813,-2.918 1.459,-2.264 1.459,-1.46C1.459,-0.669 0.813,0 0.015,0C-0.798,0 -1.444,-0.669 -1.444,-1.46C-1.444,-2.264 -0.798,-2.918 0.015,-2.918" style="fill:rgb(250,47,86);fill-rule:nonzero;"/>
        </g>
        <g transform="matrix(-1,0,0,1,411.833,53.8161)">
            <path d="M-0.008,-2.918C0.797,-2.918 1.451,-2.264 1.451,-1.46C1.451,-0.669 0.797,0 -0.008,0C-0.806,0 -1.459,-0.669 -1.459,-1.46C-1.459,-2.264 -0.806,-2.918 -0.008,-2.918" style="fill:rgb(250,47,86);fill-rule:nonzero;"/>
        </g>
        <g transform="matrix(-1,0,0,1,420.875,53.8161)">
            <path d="M0,-2.918C0.805,-2.918 1.459,-2.264 1.459,-1.46C1.459,-0.669 0.805,0 0,0C-0.813,0 -1.459,-0.669 -1.459,-1.46C-1.459,-2.264 -0.813,-2.918 0,-2.918" style="fill:rgb(250,47,86);fill-rule:nonzero;"/>
        </g>
        <g transform="matrix(-1,0,0,1,429.918,53.8161)">
            <path d="M0.008,-2.918C0.806,-2.918 1.459,-2.264 1.459,-1.46C1.459,-0.669 0.806,0 0.008,0C-0.797,0 -1.451,-0.669 -1.451,-1.46C-1.451,-2.264 -0.797,-2.918 0.008,-2.918" style="fill:rgb(250,47,86);fill-rule:nonzero;"/>
        </g>
        <g transform="matrix(-1,0,0,1,438.937,53.8161)">
            <path d="M-0.015,-2.918C0.79,-2.918 1.444,-2.264 1.444,-1.46C1.444,-0.669 0.79,0 -0.015,0C-0.813,0 -1.459,-0.669 -1.459,-1.46C-1.459,-2.264 -0.813,-2.918 -0.015,-2.918" style="fill:rgb(250,47,86);fill-rule:nonzero;"/>
        </g>
        <g transform="matrix(-1,0,0,1,447.972,53.8161)">
            <path d="M-0.015,-2.918C0.798,-2.918 1.444,-2.264 1.444,-1.46C1.444,-0.669 0.798,0 -0.015,0C-0.813,0 -1.459,-0.669 -1.459,-1.46C-1.459,-2.264 -0.813,-2.918 -0.015,-2.918" style="fill:rgb(250,47,86);fill-rule:nonzero;"/>
        </g>
        <g transform="matrix(-1,0,0,1,330.53,62.707)">
            <path d="M0.016,-2.615C0.738,-2.615 1.315,-2.038 1.315,-1.323C1.315,-0.594 0.738,0 0.016,0C-0.706,0 -1.299,-0.594 -1.299,-1.323C-1.299,-2.038 -0.706,-2.615 0.016,-2.615" style="fill:rgb(250,47,86);fill-rule:nonzero;"/>
        </g>
        <g transform="matrix(-1,0,0,1,339.556,62.707)">
            <path d="M0.008,-2.615C0.722,-2.615 1.307,-2.038 1.307,-1.323C1.307,-0.594 0.722,0 0.008,0C-0.714,0 -1.299,-0.594 -1.299,-1.323C-1.299,-2.038 -0.714,-2.615 0.008,-2.615" style="fill:rgb(250,47,86);fill-rule:nonzero;"/>
        </g>
        <g transform="matrix(-1,0,0,1,348.582,62.707)">
            <path d="M-0.008,-2.615C0.714,-2.615 1.299,-2.038 1.299,-1.323C1.299,-0.594 0.714,0 -0.008,0C-0.722,0 -1.307,-0.594 -1.307,-1.323C-1.307,-2.038 -0.722,-2.615 -0.008,-2.615" style="fill:rgb(250,47,86);fill-rule:nonzero;"/>
        </g>
        <g transform="matrix(-1,0,0,1,357.625,62.707)">
            <path d="M0,-2.615C0.722,-2.615 1.299,-2.038 1.299,-1.323C1.299,-0.594 0.722,0 0,0C-0.722,0 -1.299,-0.594 -1.299,-1.323C-1.299,-2.038 -0.722,-2.615 0,-2.615" style="fill:rgb(250,47,86);fill-rule:nonzero;"/>
        </g>
        <g transform="matrix(-1,0,0,1,366.668,62.707)">
            <path d="M0.008,-2.615C0.722,-2.615 1.307,-2.038 1.307,-1.323C1.307,-0.594 0.722,0 0.008,0C-0.714,0 -1.299,-0.594 -1.299,-1.323C-1.299,-2.038 -0.714,-2.615 0.008,-2.615" style="fill:rgb(250,47,86);fill-rule:nonzero;"/>
        </g>
        <g transform="matrix(-1,0,0,1,375.686,62.707)">
            <path d="M-0.016,-2.615C0.706,-2.615 1.299,-2.038 1.299,-1.323C1.299,-0.594 0.706,0 -0.016,0C-0.723,0 -1.315,-0.594 -1.315,-1.323C-1.315,-2.038 -0.723,-2.615 -0.016,-2.615" style="fill:rgb(250,47,86);fill-rule:nonzero;"/>
        </g>
        <g transform="matrix(-1,0,0,1,384.737,62.707)">
            <path d="M0,-2.615C0.729,-2.615 1.299,-2.038 1.299,-1.323C1.299,-0.594 0.729,0 0,0C-0.722,0 -1.299,-0.594 -1.299,-1.323C-1.299,-2.038 -0.722,-2.615 0,-2.615" style="fill:rgb(250,47,86);fill-rule:nonzero;"/>
        </g>
        <g transform="matrix(-1,0,0,1,393.78,62.707)">
            <path d="M0.016,-2.615C0.738,-2.615 1.315,-2.038 1.315,-1.323C1.315,-0.594 0.738,0 0.016,0C-0.706,0 -1.299,-0.594 -1.299,-1.323C-1.299,-2.038 -0.706,-2.615 0.016,-2.615" style="fill:rgb(250,47,86);fill-rule:nonzero;"/>
        </g>
        <g transform="matrix(-1,0,0,1,402.815,62.707)">
            <path d="M0.016,-2.615C0.723,-2.615 1.315,-2.038 1.315,-1.323C1.315,-0.594 0.723,0 0.016,0C-0.706,0 -1.299,-0.594 -1.299,-1.323C-1.299,-2.038 -0.706,-2.615 0.016,-2.615" style="fill:rgb(250,47,86);fill-rule:nonzero;"/>
        </g>
        <g transform="matrix(-1,0,0,1,411.833,62.707)">
            <path d="M-0.008,-2.615C0.714,-2.615 1.299,-2.038 1.299,-1.323C1.299,-0.594 0.714,0 -0.008,0C-0.722,0 -1.307,-0.594 -1.307,-1.323C-1.307,-2.038 -0.722,-2.615 -0.008,-2.615" style="fill:rgb(250,47,86);fill-rule:nonzero;"/>
        </g>
        <g transform="matrix(-1,0,0,1,420.875,62.707)">
            <path d="M0,-2.615C0.722,-2.615 1.299,-2.038 1.299,-1.323C1.299,-0.594 0.722,0 0,0C-0.722,0 -1.299,-0.594 -1.299,-1.323C-1.299,-2.038 -0.722,-2.615 0,-2.615" style="fill:rgb(250,47,86);fill-rule:nonzero;"/>
        </g>
        <g transform="matrix(-1,0,0,1,429.918,62.707)">
            <path d="M0.008,-2.615C0.722,-2.615 1.307,-2.038 1.307,-1.323C1.307,-0.594 0.722,0 0.008,0C-0.714,0 -1.299,-0.594 -1.299,-1.323C-1.299,-2.038 -0.714,-2.615 0.008,-2.615" style="fill:rgb(250,47,86);fill-rule:nonzero;"/>
        </g>
        <g transform="matrix(-1,0,0,1,438.944,62.707)">
            <path d="M-0.008,-2.615C0.714,-2.615 1.299,-2.038 1.299,-1.323C1.299,-0.594 0.714,0 -0.008,0C-0.722,0 -1.307,-0.594 -1.307,-1.323C-1.307,-2.038 -0.722,-2.615 -0.008,-2.615" style="fill:rgb(250,47,86);fill-rule:nonzero;"/>
        </g>
        <g transform="matrix(-1,0,0,1,447.987,62.707)">
            <path d="M0,-2.615C0.722,-2.615 1.299,-2.038 1.299,-1.323C1.299,-0.594 0.722,0 0,0C-0.722,0 -1.299,-0.594 -1.299,-1.323C-1.299,-2.038 -0.722,-2.615 0,-2.615" style="fill:rgb(250,47,86);fill-rule:nonzero;"/>
        </g>
        <g transform="matrix(-1,0,0,1,330.514,71.6108)">
            <path d="M0,-2.37C0.646,-2.37 1.178,-1.838 1.178,-1.184C1.178,-0.532 0.646,0 0,0C-0.653,0 -1.178,-0.532 -1.178,-1.184C-1.178,-1.838 -0.653,-2.37 0,-2.37" style="fill:rgb(250,47,86);fill-rule:nonzero;"/>
        </g>
        <g transform="matrix(-1,0,0,1,339.555,71.6108)">
            <path d="M0.007,-2.37C0.661,-2.37 1.185,-1.838 1.185,-1.184C1.185,-0.532 0.661,0 0.007,0C-0.654,0 -1.178,-0.532 -1.178,-1.184C-1.178,-1.838 -0.654,-2.37 0.007,-2.37" style="fill:rgb(250,47,86);fill-rule:nonzero;"/>
        </g>
        <g transform="matrix(-1,0,0,1,348.59,71.6108)">
            <path d="M0,-2.37C0.646,-2.37 1.178,-1.838 1.178,-1.184C1.178,-0.532 0.646,0 0,0C-0.654,0 -1.178,-0.532 -1.178,-1.184C-1.178,-1.838 -0.654,-2.37 0,-2.37" style="fill:rgb(250,47,86);fill-rule:nonzero;"/>
        </g>
        <g transform="matrix(-1,0,0,1,357.625,71.6108)">
            <path d="M0,-2.37C0.653,-2.37 1.178,-1.838 1.178,-1.184C1.178,-0.532 0.653,0 0,0C-0.646,0 -1.178,-0.532 -1.178,-1.184C-1.178,-1.838 -0.646,-2.37 0,-2.37" style="fill:rgb(250,47,86);fill-rule:nonzero;"/>
        </g>
        <g transform="matrix(-1,0,0,1,366.652,71.6108)">
            <path d="M-0.008,-2.37C0.645,-2.37 1.17,-1.838 1.17,-1.184C1.17,-0.532 0.645,0 -0.008,0C-0.654,0 -1.178,-0.532 -1.178,-1.184C-1.178,-1.838 -0.654,-2.37 -0.008,-2.37" style="fill:rgb(250,47,86);fill-rule:nonzero;"/>
        </g>
        <g transform="matrix(-1,0,0,1,375.687,71.6108)">
            <path d="M-0.015,-2.37C0.638,-2.37 1.178,-1.838 1.178,-1.184C1.178,-0.532 0.638,0 -0.015,0C-0.661,0 -1.193,-0.532 -1.193,-1.184C-1.193,-1.838 -0.661,-2.37 -0.015,-2.37" style="fill:rgb(250,47,86);fill-rule:nonzero;"/>
        </g>
        <g transform="matrix(-1,0,0,1,384.729,71.6108)">
            <path d="M-0.008,-2.37C0.646,-2.37 1.17,-1.838 1.17,-1.184C1.17,-0.532 0.646,0 -0.008,0C-0.654,0 -1.178,-0.532 -1.178,-1.184C-1.178,-1.838 -0.654,-2.37 -0.008,-2.37" style="fill:rgb(250,47,86);fill-rule:nonzero;"/>
        </g>
        <g transform="matrix(-1,0,0,1,393.764,71.6108)">
            <path d="M0,-2.37C0.646,-2.37 1.178,-1.838 1.178,-1.184C1.178,-0.532 0.646,0 0,0C-0.654,0 -1.178,-0.532 -1.178,-1.184C-1.178,-1.838 -0.654,-2.37 0,-2.37" style="fill:rgb(250,47,86);fill-rule:nonzero;"/>
        </g>
        <g transform="matrix(-1,0,0,1,402.814,71.6108)">
            <path d="M0.015,-2.37C0.661,-2.37 1.193,-1.838 1.193,-1.184C1.193,-0.532 0.661,0 0.015,0C-0.646,0 -1.178,-0.532 -1.178,-1.184C-1.178,-1.838 -0.646,-2.37 0.015,-2.37" style="fill:rgb(250,47,86);fill-rule:nonzero;"/>
        </g>
        <g transform="matrix(-1,0,0,1,411.849,71.6108)">
            <path d="M0.008,-2.37C0.654,-2.37 1.178,-1.838 1.178,-1.184C1.178,-0.532 0.654,0 0.008,0C-0.646,0 -1.17,-0.532 -1.17,-1.184C-1.17,-1.838 -0.646,-2.37 0.008,-2.37" style="fill:rgb(250,47,86);fill-rule:nonzero;"/>
        </g>
        <g transform="matrix(-1,0,0,1,420.875,71.6108)">
            <path d="M0,-2.37C0.646,-2.37 1.178,-1.838 1.178,-1.184C1.178,-0.532 0.646,0 0,0C-0.653,0 -1.178,-0.532 -1.178,-1.184C-1.178,-1.838 -0.653,-2.37 0,-2.37" style="fill:rgb(250,47,86);fill-rule:nonzero;"/>
        </g>
        <g transform="matrix(-1,0,0,1,429.91,71.6108)">
            <path d="M0,-2.37C0.654,-2.37 1.178,-1.838 1.178,-1.184C1.178,-0.532 0.654,0 0,0C-0.646,0 -1.178,-0.532 -1.178,-1.184C-1.178,-1.838 -0.646,-2.37 0,-2.37" style="fill:rgb(250,47,86);fill-rule:nonzero;"/>
        </g>
        <g transform="matrix(-1,0,0,1,438.945,71.6108)">
            <path d="M-0.007,-2.37C0.654,-2.37 1.178,-1.838 1.178,-1.184C1.178,-0.532 0.654,0 -0.007,0C-0.66,0 -1.185,-0.532 -1.185,-1.184C-1.185,-1.838 -0.66,-2.37 -0.007,-2.37" style="fill:rgb(250,47,86);fill-rule:nonzero;"/>
        </g>
        <g transform="matrix(-1,0,0,1,447.987,71.6108)">
            <path d="M0,-2.37C0.653,-2.37 1.178,-1.838 1.178,-1.184C1.178,-0.532 0.653,0 0,0C-0.646,0 -1.178,-0.532 -1.178,-1.184C-1.178,-1.838 -0.646,-2.37 0,-2.37" style="fill:rgb(250,47,86);fill-rule:nonzero;"/>
        </g>
        <g transform="matrix(-1,0,0,1,330.522,80.5018)">
            <path d="M0.008,-2.067C0.57,-2.067 1.034,-1.611 1.034,-1.034C1.034,-0.472 0.57,0 0.008,0C-0.57,0 -1.026,-0.472 -1.026,-1.034C-1.026,-1.611 -0.57,-2.067 0.008,-2.067" style="fill:rgb(250,47,86);fill-rule:nonzero;"/>
        </g>
        <g transform="matrix(-1,0,0,1,339.556,80.5018)">
            <path d="M0.008,-2.067C0.57,-2.067 1.026,-1.611 1.026,-1.034C1.026,-0.472 0.57,0 0.008,0C-0.57,0 -1.018,-0.472 -1.018,-1.034C-1.018,-1.611 -0.57,-2.067 0.008,-2.067" style="fill:rgb(250,47,86);fill-rule:nonzero;"/>
        </g>
        <g transform="matrix(-1,0,0,1,348.598,80.5018)">
            <path d="M0.008,-2.067C0.585,-2.067 1.034,-1.611 1.034,-1.034C1.034,-0.472 0.585,0 0.008,0C-0.554,0 -1.026,-0.472 -1.026,-1.034C-1.026,-1.611 -0.554,-2.067 0.008,-2.067" style="fill:rgb(250,47,86);fill-rule:nonzero;"/>
        </g>
        <g transform="matrix(-1,0,0,1,357.618,80.5018)">
            <path d="M-0.007,-2.067C0.555,-2.067 1.026,-1.611 1.026,-1.034C1.026,-0.472 0.555,0 -0.007,0C-0.569,0 -1.033,-0.472 -1.033,-1.034C-1.033,-1.611 -0.569,-2.067 -0.007,-2.067" style="fill:rgb(250,47,86);fill-rule:nonzero;"/>
        </g>
        <g transform="matrix(-1,0,0,1,366.653,80.5018)">
            <path d="M-0.007,-2.067C0.563,-2.067 1.026,-1.611 1.026,-1.034C1.026,-0.472 0.563,0 -0.007,0C-0.577,0 -1.033,-0.472 -1.033,-1.034C-1.033,-1.611 -0.577,-2.067 -0.007,-2.067" style="fill:rgb(250,47,86);fill-rule:nonzero;"/>
        </g>
        <g transform="matrix(-1,0,0,1,375.687,80.5018)">
            <path d="M-0.015,-2.067C0.562,-2.067 1.018,-1.611 1.018,-1.034C1.018,-0.472 0.562,0 -0.015,0C-0.577,0 -1.033,-0.472 -1.033,-1.034C-1.033,-1.611 -0.577,-2.067 -0.015,-2.067" style="fill:rgb(250,47,86);fill-rule:nonzero;"/>
        </g>
        <g transform="matrix(-1,0,0,1,384.73,80.5018)">
            <path d="M-0.007,-2.067C0.563,-2.067 1.026,-1.611 1.026,-1.034C1.026,-0.472 0.563,0 -0.007,0C-0.569,0 -1.033,-0.472 -1.033,-1.034C-1.033,-1.611 -0.569,-2.067 -0.007,-2.067" style="fill:rgb(250,47,86);fill-rule:nonzero;"/>
        </g>
        <g transform="matrix(-1,0,0,1,393.771,80.5018)">
            <path d="M0.007,-2.067C0.569,-2.067 1.033,-1.611 1.033,-1.034C1.033,-0.472 0.569,0 0.007,0C-0.563,0 -1.026,-0.472 -1.026,-1.034C-1.026,-1.611 -0.563,-2.067 0.007,-2.067" style="fill:rgb(250,47,86);fill-rule:nonzero;"/>
        </g>
        <g transform="matrix(-1,0,0,1,402.814,80.5018)">
            <path d="M0.015,-2.067C0.577,-2.067 1.033,-1.611 1.033,-1.034C1.033,-0.472 0.577,0 0.015,0C-0.562,0 -1.018,-0.472 -1.018,-1.034C-1.018,-1.611 -0.562,-2.067 0.015,-2.067" style="fill:rgb(250,47,86);fill-rule:nonzero;"/>
        </g>
        <g transform="matrix(-1,0,0,1,411.848,80.5018)">
            <path d="M0.007,-2.067C0.577,-2.067 1.033,-1.611 1.033,-1.034C1.033,-0.472 0.577,0 0.007,0C-0.563,0 -1.026,-0.472 -1.026,-1.034C-1.026,-1.611 -0.563,-2.067 0.007,-2.067" style="fill:rgb(250,47,86);fill-rule:nonzero;"/>
        </g>
        <g transform="matrix(-1,0,0,1,420.882,80.5018)">
            <path d="M0.007,-2.067C0.569,-2.067 1.033,-1.611 1.033,-1.034C1.033,-0.472 0.569,0 0.007,0C-0.555,0 -1.026,-0.472 -1.026,-1.034C-1.026,-1.611 -0.555,-2.067 0.007,-2.067" style="fill:rgb(250,47,86);fill-rule:nonzero;"/>
        </g>
        <g transform="matrix(-1,0,0,1,429.903,80.5018)">
            <path d="M-0.007,-2.067C0.555,-2.067 1.026,-1.611 1.026,-1.034C1.026,-0.472 0.555,0 -0.007,0C-0.585,0 -1.033,-0.472 -1.033,-1.034C-1.033,-1.611 -0.585,-2.067 -0.007,-2.067" style="fill:rgb(250,47,86);fill-rule:nonzero;"/>
        </g>
        <g transform="matrix(-1,0,0,1,438.944,80.5018)">
            <path d="M-0.008,-2.067C0.569,-2.067 1.018,-1.611 1.018,-1.034C1.018,-0.472 0.569,0 -0.008,0C-0.57,0 -1.026,-0.472 -1.026,-1.034C-1.026,-1.611 -0.57,-2.067 -0.008,-2.067" style="fill:rgb(250,47,86);fill-rule:nonzero;"/>
        </g>
        <g transform="matrix(-1,0,0,1,447.98,80.5018)">
            <path d="M-0.007,-2.067C0.555,-2.067 1.026,-1.611 1.026,-1.034C1.026,-0.472 0.555,0 -0.007,0C-0.569,0 -1.033,-0.472 -1.033,-1.034C-1.033,-1.611 -0.569,-2.067 -0.007,-2.067" style="fill:rgb(250,47,86);fill-rule:nonzero;"/>
        </g>
        <g transform="matrix(-1,0,0,1,330.521,89.4071)">
            <path d="M0.007,-1.808C0.493,-1.808 0.904,-1.413 0.904,-0.912C0.904,-0.41 0.493,0 0.007,0C-0.495,0 -0.897,-0.41 -0.897,-0.912C-0.897,-1.413 -0.495,-1.808 0.007,-1.808" style="fill:rgb(250,47,86);fill-rule:nonzero;"/>
        </g>
        <g transform="matrix(-1,0,0,1,339.555,89.4071)">
            <path d="M0.007,-1.808C0.501,-1.808 0.904,-1.413 0.904,-0.912C0.904,-0.41 0.501,0 0.007,0C-0.494,0 -0.897,-0.41 -0.897,-0.912C-0.897,-1.413 -0.494,-1.808 0.007,-1.808" style="fill:rgb(250,47,86);fill-rule:nonzero;"/>
        </g>
        <g transform="matrix(-1,0,0,1,348.583,89.4071)">
            <path d="M-0.007,-1.808C0.494,-1.808 0.897,-1.413 0.897,-0.912C0.897,-0.41 0.494,0 -0.007,0C-0.501,0 -0.904,-0.41 -0.904,-0.912C-0.904,-1.413 -0.501,-1.808 -0.007,-1.808" style="fill:rgb(250,47,86);fill-rule:nonzero;"/>
        </g>
        <g transform="matrix(-1,0,0,1,357.625,89.4071)">
            <path d="M0,-1.808C0.501,-1.808 0.904,-1.413 0.904,-0.912C0.904,-0.41 0.501,0 0,0C-0.501,0 -0.904,-0.41 -0.904,-0.912C-0.904,-1.413 -0.501,-1.808 0,-1.808" style="fill:rgb(250,47,86);fill-rule:nonzero;"/>
        </g>
        <g transform="matrix(-1,0,0,1,366.668,89.4071)">
            <path d="M0.008,-1.808C0.502,-1.808 0.904,-1.413 0.904,-0.912C0.904,-0.41 0.502,0 0.008,0C-0.494,0 -0.896,-0.41 -0.896,-0.912C-0.896,-1.413 -0.494,-1.808 0.008,-1.808" style="fill:rgb(250,47,86);fill-rule:nonzero;"/>
        </g>
        <g transform="matrix(-1,0,0,1,375.695,89.4071)">
            <path d="M-0.007,-1.808C0.494,-1.808 0.897,-1.413 0.897,-0.912C0.897,-0.41 0.494,0 -0.007,0C-0.493,0 -0.904,-0.41 -0.904,-0.912C-0.904,-1.413 -0.493,-1.808 -0.007,-1.808" style="fill:rgb(250,47,86);fill-rule:nonzero;"/>
        </g>
        <g transform="matrix(-1,0,0,1,384.729,89.4071)">
            <path d="M-0.008,-1.808C0.501,-1.808 0.904,-1.413 0.904,-0.912C0.904,-0.41 0.501,0 -0.008,0C-0.509,0 -0.912,-0.41 -0.912,-0.912C-0.912,-1.413 -0.509,-1.808 -0.008,-1.808" style="fill:rgb(250,47,86);fill-rule:nonzero;"/>
        </g>
        <g transform="matrix(-1,0,0,1,393.787,89.4071)">
            <path d="M0.023,-1.808C0.509,-1.808 0.912,-1.413 0.912,-0.912C0.912,-0.41 0.509,0 0.023,0C-0.478,0 -0.889,-0.41 -0.889,-0.912C-0.889,-1.413 -0.478,-1.808 0.023,-1.808" style="fill:rgb(250,47,86);fill-rule:nonzero;"/>
        </g>
        <g transform="matrix(-1,0,0,1,402.806,89.4071)">
            <path d="M0.007,-1.808C0.493,-1.808 0.904,-1.413 0.904,-0.912C0.904,-0.41 0.493,0 0.007,0C-0.494,0 -0.897,-0.41 -0.897,-0.912C-0.897,-1.413 -0.494,-1.808 0.007,-1.808" style="fill:rgb(250,47,86);fill-rule:nonzero;"/>
        </g>
        <g transform="matrix(-1,0,0,1,411.834,89.4071)">
            <path d="M-0.007,-1.808C0.494,-1.808 0.897,-1.413 0.897,-0.912C0.897,-0.41 0.494,0 -0.007,0C-0.501,0 -0.904,-0.41 -0.904,-0.912C-0.904,-1.413 -0.501,-1.808 -0.007,-1.808" style="fill:rgb(250,47,86);fill-rule:nonzero;"/>
        </g>
        <g transform="matrix(-1,0,0,1,420.875,89.4071)">
            <path d="M0,-1.808C0.502,-1.808 0.904,-1.413 0.904,-0.912C0.904,-0.41 0.502,0 0,0C-0.501,0 -0.904,-0.41 -0.904,-0.912C-0.904,-1.413 -0.501,-1.808 0,-1.808" style="fill:rgb(250,47,86);fill-rule:nonzero;"/>
        </g>
        <g transform="matrix(-1,0,0,1,429.917,89.4071)">
            <path d="M0.007,-1.808C0.501,-1.808 0.904,-1.413 0.904,-0.912C0.904,-0.41 0.501,0 0.007,0C-0.494,0 -0.897,-0.41 -0.897,-0.912C-0.897,-1.413 -0.494,-1.808 0.007,-1.808" style="fill:rgb(250,47,86);fill-rule:nonzero;"/>
        </g>
        <g transform="matrix(-1,0,0,1,438.945,89.4071)">
            <path d="M-0.007,-1.808C0.494,-1.808 0.897,-1.413 0.897,-0.912C0.897,-0.41 0.494,0 -0.007,0C-0.501,0 -0.904,-0.41 -0.904,-0.912C-0.904,-1.413 -0.501,-1.808 -0.007,-1.808" style="fill:rgb(250,47,86);fill-rule:nonzero;"/>
        </g>
        <g transform="matrix(-1,0,0,1,447.972,89.4071)">
            <path d="M-0.015,-1.808C0.487,-1.808 0.897,-1.413 0.897,-0.912C0.897,-0.41 0.487,0 -0.015,0C-0.516,0 -0.912,-0.41 -0.912,-0.912C-0.912,-1.413 -0.516,-1.808 -0.015,-1.808" style="fill:rgb(250,47,86);fill-rule:nonzero;"/>
        </g>
        <g transform="matrix(-1,0,0,1,330.529,98.2981)">
            <path d="M0.015,-1.505C0.433,-1.505 0.76,-1.186 0.76,-0.761C0.76,-0.35 0.433,0 0.015,0C-0.403,0 -0.745,-0.35 -0.745,-0.761C-0.745,-1.186 -0.403,-1.505 0.015,-1.505" style="fill:rgb(250,47,86);fill-rule:nonzero;"/>
        </g>
        <g transform="matrix(-1,0,0,1,339.556,98.2981)">
            <path d="M0.008,-1.505C0.411,-1.505 0.76,-1.186 0.76,-0.761C0.76,-0.35 0.411,0 0.008,0C-0.41,0 -0.752,-0.35 -0.752,-0.761C-0.752,-1.186 -0.41,-1.505 0.008,-1.505" style="fill:rgb(250,47,86);fill-rule:nonzero;"/>
        </g>
        <g transform="matrix(-1,0,0,1,348.582,98.2981)">
            <path d="M-0.008,-1.505C0.41,-1.505 0.752,-1.186 0.752,-0.761C0.752,-0.35 0.41,0 -0.008,0C-0.426,0 -0.76,-0.35 -0.76,-0.761C-0.76,-1.186 -0.426,-1.505 -0.008,-1.505" style="fill:rgb(250,47,86);fill-rule:nonzero;"/>
        </g>
        <g transform="matrix(-1,0,0,1,357.618,98.2981)">
            <path d="M-0.007,-1.505C0.411,-1.505 0.745,-1.186 0.745,-0.761C0.745,-0.35 0.411,0 -0.007,0C-0.425,0 -0.752,-0.35 -0.752,-0.761C-0.752,-1.186 -0.425,-1.505 -0.007,-1.505" style="fill:rgb(250,47,86);fill-rule:nonzero;"/>
        </g>
        <g transform="matrix(-1,0,0,1,366.668,98.2981)">
            <path d="M0.008,-1.505C0.426,-1.505 0.76,-1.186 0.76,-0.761C0.76,-0.35 0.426,0 0.008,0C-0.402,0 -0.752,-0.35 -0.752,-0.761C-0.752,-1.186 -0.402,-1.505 0.008,-1.505" style="fill:rgb(250,47,86);fill-rule:nonzero;"/>
        </g>
        <g transform="matrix(-1,0,0,1,375.687,98.2981)">
            <path d="M-0.015,-1.505C0.403,-1.505 0.745,-1.186 0.745,-0.761C0.745,-0.35 0.403,0 -0.015,0C-0.418,0 -0.76,-0.35 -0.76,-0.761C-0.76,-1.186 -0.418,-1.505 -0.015,-1.505" style="fill:rgb(250,47,86);fill-rule:nonzero;"/>
        </g>
        <g transform="matrix(-1,0,0,1,384.73,98.2981)">
            <path d="M-0.007,-1.505C0.411,-1.505 0.745,-1.186 0.745,-0.761C0.745,-0.35 0.411,0 -0.007,0C-0.417,0 -0.752,-0.35 -0.752,-0.761C-0.752,-1.186 -0.417,-1.505 -0.007,-1.505" style="fill:rgb(250,47,86);fill-rule:nonzero;"/>
        </g>
        <g transform="matrix(-1,0,0,1,393.779,98.2981)">
            <path d="M0.015,-1.505C0.433,-1.505 0.76,-1.186 0.76,-0.761C0.76,-0.35 0.433,0 0.015,0C-0.403,0 -0.745,-0.35 -0.745,-0.761C-0.745,-1.186 -0.403,-1.505 0.015,-1.505" style="fill:rgb(250,47,86);fill-rule:nonzero;"/>
        </g>
        <g transform="matrix(-1,0,0,1,402.814,98.2981)">
            <path d="M0.015,-1.505C0.418,-1.505 0.76,-1.186 0.76,-0.761C0.76,-0.35 0.418,0 0.015,0C-0.403,0 -0.745,-0.35 -0.745,-0.761C-0.745,-1.186 -0.403,-1.505 0.015,-1.505" style="fill:rgb(250,47,86);fill-rule:nonzero;"/>
        </g>
        <g transform="matrix(-1,0,0,1,411.833,98.2981)">
            <path d="M-0.008,-1.505C0.402,-1.505 0.752,-1.186 0.752,-0.761C0.752,-0.35 0.402,0 -0.008,0C-0.426,0 -0.76,-0.35 -0.76,-0.761C-0.76,-1.186 -0.426,-1.505 -0.008,-1.505" style="fill:rgb(250,47,86);fill-rule:nonzero;"/>
        </g>
        <g transform="matrix(-1,0,0,1,420.875,98.2981)">
            <path d="M0,-1.505C0.418,-1.505 0.745,-1.186 0.745,-0.761C0.745,-0.35 0.418,0 0,0C-0.418,0 -0.745,-0.35 -0.745,-0.761C-0.745,-1.186 -0.418,-1.505 0,-1.505" style="fill:rgb(250,47,86);fill-rule:nonzero;"/>
        </g>
        <g transform="matrix(-1,0,0,1,429.918,98.2981)">
            <path d="M0.008,-1.505C0.426,-1.505 0.76,-1.186 0.76,-0.761C0.76,-0.35 0.426,0 0.008,0C-0.41,0 -0.752,-0.35 -0.752,-0.761C-0.752,-1.186 -0.41,-1.505 0.008,-1.505" style="fill:rgb(250,47,86);fill-rule:nonzero;"/>
        </g>
        <g transform="matrix(-1,0,0,1,438.944,98.2981)">
            <path d="M-0.008,-1.505C0.41,-1.505 0.752,-1.186 0.752,-0.761C0.752,-0.35 0.41,0 -0.008,0C-0.411,0 -0.76,-0.35 -0.76,-0.761C-0.76,-1.186 -0.411,-1.505 -0.008,-1.505" style="fill:rgb(250,47,86);fill-rule:nonzero;"/>
        </g>
        <g transform="matrix(-1,0,0,1,447.972,98.2981)">
            <path d="M-0.015,-1.505C0.403,-1.505 0.745,-1.186 0.745,-0.761C0.745,-0.35 0.403,0 -0.015,0C-0.433,0 -0.76,-0.35 -0.76,-0.761C-0.76,-1.186 -0.433,-1.505 -0.015,-1.505" style="fill:rgb(250,47,86);fill-rule:nonzero;"/>
        </g>
        <g transform="matrix(-1,0,0,1,330.514,107.188)">
            <path d="M0,-1.217C0.327,-1.217 0.6,-0.959 0.6,-0.609C0.6,-0.274 0.327,0 0,0C-0.334,0 -0.6,-0.274 -0.6,-0.609C-0.6,-0.959 -0.334,-1.217 0,-1.217" style="fill:rgb(250,47,86);fill-rule:nonzero;"/>
        </g>
        <g transform="matrix(-1,0,0,1,339.556,107.188)">
            <path d="M0.008,-1.217C0.342,-1.217 0.608,-0.959 0.608,-0.609C0.608,-0.274 0.342,0 0.008,0C-0.334,0 -0.6,-0.274 -0.6,-0.609C-0.6,-0.959 -0.334,-1.217 0.008,-1.217" style="fill:rgb(250,47,86);fill-rule:nonzero;"/>
        </g>
        <g transform="matrix(-1,0,0,1,348.59,107.188)">
            <path d="M0,-1.217C0.327,-1.217 0.6,-0.959 0.6,-0.609C0.6,-0.274 0.327,0 0,0C-0.334,0 -0.6,-0.274 -0.6,-0.609C-0.6,-0.959 -0.334,-1.217 0,-1.217" style="fill:rgb(250,47,86);fill-rule:nonzero;"/>
        </g>
        <g transform="matrix(-1,0,0,1,357.625,107.188)">
            <path d="M0,-1.217C0.334,-1.217 0.6,-0.959 0.6,-0.609C0.6,-0.274 0.334,0 0,0C-0.327,0 -0.6,-0.274 -0.6,-0.609C-0.6,-0.959 -0.327,-1.217 0,-1.217" style="fill:rgb(250,47,86);fill-rule:nonzero;"/>
        </g>
        <g transform="matrix(-1,0,0,1,366.66,107.188)">
            <path d="M0,-1.217C0.334,-1.217 0.6,-0.959 0.6,-0.609C0.6,-0.274 0.334,0 0,0C-0.327,0 -0.6,-0.274 -0.6,-0.609C-0.6,-0.959 -0.327,-1.217 0,-1.217" style="fill:rgb(250,47,86);fill-rule:nonzero;"/>
        </g>
        <g transform="matrix(-1,0,0,1,375.702,107.188)">
            <path d="M0,-1.217C0.334,-1.217 0.6,-0.959 0.6,-0.609C0.6,-0.274 0.334,0 0,0C-0.327,0 -0.6,-0.274 -0.6,-0.609C-0.6,-0.959 -0.327,-1.217 0,-1.217" style="fill:rgb(250,47,86);fill-rule:nonzero;"/>
        </g>
        <g transform="matrix(-1,0,0,1,384.737,107.188)">
            <path d="M0,-1.217C0.334,-1.217 0.6,-0.959 0.6,-0.609C0.6,-0.274 0.334,0 0,0C-0.327,0 -0.6,-0.274 -0.6,-0.609C-0.6,-0.959 -0.327,-1.217 0,-1.217" style="fill:rgb(250,47,86);fill-rule:nonzero;"/>
        </g>
        <g transform="matrix(-1,0,0,1,393.764,107.188)">
            <path d="M0,-1.217C0.327,-1.217 0.6,-0.959 0.6,-0.609C0.6,-0.274 0.327,0 0,0C-0.334,0 -0.6,-0.274 -0.6,-0.609C-0.6,-0.959 -0.334,-1.217 0,-1.217" style="fill:rgb(250,47,86);fill-rule:nonzero;"/>
        </g>
        <g transform="matrix(-1,0,0,1,402.815,107.188)">
            <path d="M0.016,-1.217C0.343,-1.217 0.616,-0.959 0.616,-0.609C0.616,-0.274 0.343,0 0.016,0C-0.326,0 -0.6,-0.274 -0.6,-0.609C-0.6,-0.959 -0.326,-1.217 0.016,-1.217" style="fill:rgb(250,47,86);fill-rule:nonzero;"/>
        </g>
        <g transform="matrix(-1,0,0,1,411.841,107.188)">
            <path d="M0,-1.217C0.327,-1.217 0.6,-0.959 0.6,-0.609C0.6,-0.274 0.327,0 0,0C-0.334,0 -0.6,-0.274 -0.6,-0.609C-0.6,-0.959 -0.334,-1.217 0,-1.217" style="fill:rgb(250,47,86);fill-rule:nonzero;"/>
        </g>
        <g transform="matrix(-1,0,0,1,420.875,107.188)">
            <path d="M0,-1.217C0.327,-1.217 0.6,-0.959 0.6,-0.609C0.6,-0.274 0.327,0 0,0C-0.334,0 -0.6,-0.274 -0.6,-0.609C-0.6,-0.959 -0.334,-1.217 0,-1.217" style="fill:rgb(250,47,86);fill-rule:nonzero;"/>
        </g>
        <g transform="matrix(-1,0,0,1,429.91,107.188)">
            <path d="M0,-1.217C0.334,-1.217 0.6,-0.959 0.6,-0.609C0.6,-0.274 0.334,0 0,0C-0.327,0 -0.6,-0.274 -0.6,-0.609C-0.6,-0.959 -0.327,-1.217 0,-1.217" style="fill:rgb(250,47,86);fill-rule:nonzero;"/>
        </g>
        <g transform="matrix(-1,0,0,1,438.937,107.188)">
            <path d="M-0.015,-1.217C0.327,-1.217 0.6,-0.959 0.6,-0.609C0.6,-0.274 0.327,0 -0.015,0C-0.349,0 -0.615,-0.274 -0.615,-0.609C-0.615,-0.959 -0.349,-1.217 -0.015,-1.217" style="fill:rgb(250,47,86);fill-rule:nonzero;"/>
        </g>
        <g transform="matrix(-1,0,0,1,447.987,107.188)">
            <path d="M0,-1.217C0.334,-1.217 0.6,-0.959 0.6,-0.609C0.6,-0.274 0.334,0 0,0C-0.327,0 -0.6,-0.274 -0.6,-0.609C-0.6,-0.959 -0.327,-1.217 0,-1.217" style="fill:rgb(250,47,86);fill-rule:nonzero;"/>
        </g>
        <g transform="matrix(-1,0,0,1,330.514,116.093)">
            <path d="M0,-0.957C0.258,-0.957 0.479,-0.744 0.479,-0.486C0.479,-0.227 0.258,0 0,0C-0.274,0 -0.479,-0.227 -0.479,-0.486C-0.479,-0.744 -0.274,-0.957 0,-0.957" style="fill:rgb(250,47,86);fill-rule:nonzero;"/>
        </g>
        <g transform="matrix(-1,0,0,1,339.563,116.093)">
            <path d="M0.015,-0.957C0.273,-0.957 0.479,-0.744 0.479,-0.486C0.479,-0.227 0.273,0 0.015,0C-0.251,0 -0.464,-0.227 -0.464,-0.486C-0.464,-0.744 -0.251,-0.957 0.015,-0.957" style="fill:rgb(250,47,86);fill-rule:nonzero;"/>
        </g>
        <g transform="matrix(-1,0,0,1,348.59,116.093)">
            <path d="M0,-0.957C0.266,-0.957 0.479,-0.744 0.479,-0.486C0.479,-0.227 0.266,0 0,0C-0.258,0 -0.479,-0.227 -0.479,-0.486C-0.479,-0.744 -0.258,-0.957 0,-0.957" style="fill:rgb(250,47,86);fill-rule:nonzero;"/>
        </g>
        <g transform="matrix(-1,0,0,1,357.625,116.093)">
            <path d="M0,-0.957C0.258,-0.957 0.479,-0.744 0.479,-0.486C0.479,-0.227 0.258,0 0,0C-0.266,0 -0.479,-0.227 -0.479,-0.486C-0.479,-0.744 -0.266,-0.957 0,-0.957" style="fill:rgb(250,47,86);fill-rule:nonzero;"/>
        </g>
        <g transform="matrix(-1,0,0,1,366.652,116.093)">
            <path d="M-0.008,-0.957C0.25,-0.957 0.471,-0.744 0.471,-0.486C0.471,-0.227 0.25,0 -0.008,0C-0.274,0 -0.479,-0.227 -0.479,-0.486C-0.479,-0.744 -0.274,-0.957 -0.008,-0.957" style="fill:rgb(250,47,86);fill-rule:nonzero;"/>
        </g>
        <g transform="matrix(-1,0,0,1,375.687,116.093)">
            <path d="M-0.015,-0.957C0.258,-0.957 0.464,-0.744 0.464,-0.486C0.464,-0.227 0.258,0 -0.015,0C-0.273,0 -0.479,-0.227 -0.479,-0.486C-0.479,-0.744 -0.273,-0.957 -0.015,-0.957" style="fill:rgb(250,47,86);fill-rule:nonzero;"/>
        </g>
        <g transform="matrix(-1,0,0,1,384.737,116.093)">
            <path d="M0,-0.957C0.273,-0.957 0.479,-0.744 0.479,-0.486C0.479,-0.227 0.273,0 0,0C-0.251,0 -0.479,-0.227 -0.479,-0.486C-0.479,-0.744 -0.251,-0.957 0,-0.957" style="fill:rgb(250,47,86);fill-rule:nonzero;"/>
        </g>
        <g transform="matrix(-1,0,0,1,393.764,116.093)">
            <path d="M0,-0.957C0.258,-0.957 0.479,-0.744 0.479,-0.486C0.479,-0.227 0.258,0 0,0C-0.273,0 -0.479,-0.227 -0.479,-0.486C-0.479,-0.744 -0.273,-0.957 0,-0.957" style="fill:rgb(250,47,86);fill-rule:nonzero;"/>
        </g>
        <g transform="matrix(-1,0,0,1,402.814,116.093)">
            <path d="M0.015,-0.957C0.273,-0.957 0.479,-0.744 0.479,-0.486C0.479,-0.227 0.273,0 0.015,0C-0.258,0 -0.464,-0.227 -0.464,-0.486C-0.464,-0.744 -0.258,-0.957 0.015,-0.957" style="fill:rgb(250,47,86);fill-rule:nonzero;"/>
        </g>
        <g transform="matrix(-1,0,0,1,411.841,116.093)">
            <path d="M0,-0.957C0.266,-0.957 0.479,-0.744 0.479,-0.486C0.479,-0.227 0.266,0 0,0C-0.258,0 -0.479,-0.227 -0.479,-0.486C-0.479,-0.744 -0.258,-0.957 0,-0.957" style="fill:rgb(250,47,86);fill-rule:nonzero;"/>
        </g>
        <g transform="matrix(-1,0,0,1,420.875,116.093)">
            <path d="M0,-0.957C0.258,-0.957 0.479,-0.744 0.479,-0.486C0.479,-0.227 0.258,0 0,0C-0.258,0 -0.479,-0.227 -0.479,-0.486C-0.479,-0.744 -0.258,-0.957 0,-0.957" style="fill:rgb(250,47,86);fill-rule:nonzero;"/>
        </g>
        <g transform="matrix(-1,0,0,1,429.91,116.093)">
            <path d="M0,-0.957C0.258,-0.957 0.479,-0.744 0.479,-0.486C0.479,-0.227 0.258,0 0,0C-0.266,0 -0.479,-0.227 -0.479,-0.486C-0.479,-0.744 -0.266,-0.957 0,-0.957" style="fill:rgb(250,47,86);fill-rule:nonzero;"/>
        </g>
        <g transform="matrix(-1,0,0,1,438.937,116.093)">
            <path d="M-0.015,-0.957C0.251,-0.957 0.464,-0.744 0.464,-0.486C0.464,-0.227 0.251,0 -0.015,0C-0.273,0 -0.479,-0.227 -0.479,-0.486C-0.479,-0.744 -0.273,-0.957 -0.015,-0.957" style="fill:rgb(250,47,86);fill-rule:nonzero;"/>
        </g>
        <g transform="matrix(-1,0,0,1,447.987,116.093)">
            <path d="M0,-0.957C0.273,-0.957 0.479,-0.744 0.479,-0.486C0.479,-0.227 0.273,0 0,0C-0.258,0 -0.479,-0.227 -0.479,-0.486C-0.479,-0.744 -0.258,-0.957 0,-0.957" style="fill:rgb(250,47,86);fill-rule:nonzero;"/>
        </g>
        <g transform="matrix(-1,0,0,1,330.529,124.968)">
            <path d="M0.015,-0.638C0.182,-0.638 0.334,-0.501 0.334,-0.319C0.334,-0.135 0.182,0 0.015,0C-0.167,0 -0.319,-0.135 -0.319,-0.319C-0.319,-0.501 -0.167,-0.638 0.015,-0.638" style="fill:rgb(250,47,86);fill-rule:nonzero;"/>
        </g>
        <g transform="matrix(-1,0,0,1,339.556,124.968)">
            <path d="M0.008,-0.638C0.183,-0.638 0.327,-0.501 0.327,-0.319C0.327,-0.135 0.183,0 0.008,0C-0.174,0 -0.319,-0.135 -0.319,-0.319C-0.319,-0.501 -0.174,-0.638 0.008,-0.638" style="fill:rgb(250,47,86);fill-rule:nonzero;"/>
        </g>
        <g transform="matrix(-1,0,0,1,348.582,124.968)">
            <path d="M-0.008,-0.638C0.174,-0.638 0.319,-0.501 0.319,-0.319C0.319,-0.135 0.174,0 -0.008,0C-0.183,0 -0.327,-0.135 -0.327,-0.319C-0.327,-0.501 -0.183,-0.638 -0.008,-0.638" style="fill:rgb(250,47,86);fill-rule:nonzero;"/>
        </g>
        <g transform="matrix(-1,0,0,1,357.618,124.968)">
            <path d="M-0.007,-0.638C0.175,-0.638 0.327,-0.501 0.327,-0.319C0.327,-0.135 0.175,0 -0.007,0C-0.189,0 -0.334,-0.135 -0.334,-0.319C-0.334,-0.501 -0.189,-0.638 -0.007,-0.638" style="fill:rgb(250,47,86);fill-rule:nonzero;"/>
        </g>
        <g transform="matrix(-1,0,0,1,366.668,124.968)">
            <path d="M0.008,-0.638C0.183,-0.638 0.327,-0.501 0.327,-0.319C0.327,-0.135 0.183,0 0.008,0C-0.174,0 -0.319,-0.135 -0.319,-0.319C-0.319,-0.501 -0.174,-0.638 0.008,-0.638" style="fill:rgb(250,47,86);fill-rule:nonzero;"/>
        </g>
        <g transform="matrix(-1,0,0,1,375.687,124.968)">
            <path d="M-0.015,-0.638C0.167,-0.638 0.319,-0.501 0.319,-0.319C0.319,-0.135 0.167,0 -0.015,0C-0.182,0 -0.334,-0.135 -0.334,-0.319C-0.334,-0.501 -0.182,-0.638 -0.015,-0.638" style="fill:rgb(250,47,86);fill-rule:nonzero;"/>
        </g>
        <g transform="matrix(-1,0,0,1,384.722,124.968)">
            <path d="M-0.015,-0.638C0.175,-0.638 0.319,-0.501 0.319,-0.319C0.319,-0.135 0.175,0 -0.015,0C-0.197,0 -0.334,-0.135 -0.334,-0.319C-0.334,-0.501 -0.197,-0.638 -0.015,-0.638" style="fill:rgb(250,47,86);fill-rule:nonzero;"/>
        </g>
        <g transform="matrix(-1,0,0,1,393.779,124.968)">
            <path d="M0.015,-0.638C0.197,-0.638 0.334,-0.501 0.334,-0.319C0.334,-0.135 0.197,0 0.015,0C-0.175,0 -0.319,-0.135 -0.319,-0.319C-0.319,-0.501 -0.175,-0.638 0.015,-0.638" style="fill:rgb(250,47,86);fill-rule:nonzero;"/>
        </g>
        <g transform="matrix(-1,0,0,1,402.814,124.968)">
            <path d="M0.015,-0.638C0.19,-0.638 0.334,-0.501 0.334,-0.319C0.334,-0.135 0.19,0 0.015,0C-0.167,0 -0.319,-0.135 -0.319,-0.319C-0.319,-0.501 -0.167,-0.638 0.015,-0.638" style="fill:rgb(250,47,86);fill-rule:nonzero;"/>
        </g>
        <g transform="matrix(-1,0,0,1,411.833,124.968)">
            <path d="M-0.008,-0.638C0.174,-0.638 0.319,-0.501 0.319,-0.319C0.319,-0.135 0.174,0 -0.008,0C-0.183,0 -0.327,-0.135 -0.327,-0.319C-0.327,-0.501 -0.183,-0.638 -0.008,-0.638" style="fill:rgb(250,47,86);fill-rule:nonzero;"/>
        </g>
        <g transform="matrix(-1,0,0,1,420.882,124.968)">
            <path d="M0.007,-0.638C0.189,-0.638 0.334,-0.501 0.334,-0.319C0.334,-0.135 0.189,0 0.007,0C-0.175,0 -0.327,-0.135 -0.327,-0.319C-0.327,-0.501 -0.175,-0.638 0.007,-0.638" style="fill:rgb(250,47,86);fill-rule:nonzero;"/>
        </g>
        <g transform="matrix(-1,0,0,1,429.918,124.968)">
            <path d="M0.008,-0.638C0.183,-0.638 0.327,-0.501 0.327,-0.319C0.327,-0.135 0.183,0 0.008,0C-0.174,0 -0.319,-0.135 -0.319,-0.319C-0.319,-0.501 -0.174,-0.638 0.008,-0.638" style="fill:rgb(250,47,86);fill-rule:nonzero;"/>
        </g>
        <g transform="matrix(-1,0,0,1,438.944,124.968)">
            <path d="M-0.008,-0.638C0.174,-0.638 0.319,-0.501 0.319,-0.319C0.319,-0.135 0.174,0 -0.008,0C-0.183,0 -0.327,-0.135 -0.327,-0.319C-0.327,-0.501 -0.183,-0.638 -0.008,-0.638" style="fill:rgb(250,47,86);fill-rule:nonzero;"/>
        </g>
        <g transform="matrix(-1,0,0,1,447.972,124.968)">
            <path d="M-0.015,-0.638C0.167,-0.638 0.319,-0.501 0.319,-0.319C0.319,-0.135 0.167,0 -0.015,0C-0.197,0 -0.334,-0.135 -0.334,-0.319C-0.334,-0.501 -0.197,-0.638 -0.015,-0.638" style="fill:rgb(250,47,86);fill-rule:nonzero;"/>
        </g>
    </g>
</svg>
